<svg xmlns="http://www.w3.org/2000/svg" width="12.384" height="8.781" viewBox="0 0 12.384 8.781">
  <g id="icons8-scooter-50-_1_" transform="translate(-0.023 44.431)">
    <path id="Trazado_32" data-name="Trazado 32" d="M7.285-43.876c-1.254.836-1.559,1.082-.6,1.008L7.5-43.3v1.145c.418,2.138-.2,3.22-1.77,3.1-.885-.074-1.6-.1-1.524-.934.025-.312-3.437-.184-3.539,0C.3-39.424-.021-38.613.4-38.268a1.474,1.474,0,0,1,.369.959A1.717,1.717,0,0,0,2.484-35.8c.614,0,1.727-.649,1.727-1.164,0-.418,3.466-.541,3.613-.147l.184.214.308.106c.349.1.8-.006,1.008.292a1.525,1.525,0,0,0,1.143.7c.467,0,.805.017,1.093-.352l.281-.639v-.9c-.027-.343.234-.331.358-.651.246-.565-.418-1.327-1.327-1.524-.492-.1-.86-.516-1.45-1.573-.885-1.622-.909-1.745-.442-1.745.442,0,.737-.3.442-.835-.237-.417-1.317-.179-1.317-.179S7.73-44.071,7.285-43.876ZM.515-39.058C.54-39.357.515-38.468.515-39.058Zm3.427-1.618H1.277l-.516.137c-.1-.147.418-.68,1.721-.68,1.4,0,1.706.369,1.46.541ZM1.284-37.359a2.152,2.152,0,0,0,.77.86h.858c.408-.073,1.029-.86,1.029-.86l-.772.86H2.054Z" fill="none" stroke="#053361" stroke-width="0.3"/>
  </g>
</svg>
