<svg xmlns="http://www.w3.org/2000/svg" width="54.558" height="25.2" viewBox="0 0 54.558 25.2">
  <g id="_309527" data-name="309527" transform="translate(0.07 613.3)">
    <path id="Trazado_1" data-name="Trazado 1" d="M34.383-612.811a2.74,2.74,0,0,1-1.87.672,14.808,14.808,0,0,0-1.605.206,2.07,2.07,0,0,0-.874.571.254.254,0,0,0,.151.374c.08.029.122.071.122.126s.046.1.168.135c.147.046.223.038.6-.059.24-.059.508-.122.6-.134a4.038,4.038,0,0,0,.462-.126,2.922,2.922,0,0,1,.567-.122c.151-.017.357-.038.462-.05.126-.017.168-.008.13.017a.109.109,0,0,0-.025.13c.025.08.08.105.227.1.076,0,0,.071-.214.2l-.16.1v-.122c0-.172-.063-.252-.139-.185a.279.279,0,0,0-.067.324c.059.071.076.055-.374.374a2.421,2.421,0,0,0-.811.836c-.076.176-.1.189-.382.277a12.9,12.9,0,0,0-2.9,1.4c-.559.353-1.794,1.256-2.529,1.853-.382.311-.416.328-.567.3-.483-.076-.5-.076-.769.013a2,2,0,0,0-.395.177c-.214.147-2.029,1.042-2.5,1.235a4.207,4.207,0,0,1-3.609.16,2.323,2.323,0,0,1-.7-.538,3.424,3.424,0,0,0-1.693-1.013,2.3,2.3,0,0,0-1.13.046l-.176.071-.307-.151a3.651,3.651,0,0,0-.664-.24,4.416,4.416,0,0,0-1.429-.067,10.084,10.084,0,0,0-2.353.248,8.029,8.029,0,0,0-2.471.987c-.13.084-.454.265-.719.4a9.561,9.561,0,0,0-.845.5,11.6,11.6,0,0,0-1.164.941l-.176.155L4.2-602.84a1.307,1.307,0,0,0-.756-.613c-.24-.084-.387.021-.588.412a2.636,2.636,0,0,0-.294,1.139c0,.353.08.5.332.559a.9.9,0,0,1,.176.05,1.224,1.224,0,0,1-.147.235,10.325,10.325,0,0,0-.815,1.336,14.244,14.244,0,0,1-.958,1.639,7.16,7.16,0,0,0-.895,1.777.581.581,0,0,0,.218.681c.134.076.214.084.845.08a2.371,2.371,0,0,0,1.508-.332,2.114,2.114,0,0,1,.24-.147,1.007,1.007,0,0,1-.008.244,4.146,4.146,0,0,0,.021.731,6.792,6.792,0,0,0,2.038,4.3,6.937,6.937,0,0,0,1.513,1.177,13.07,13.07,0,0,1-1.9.046l-1.971,0-.269.109c-.3.126-.466.227-.466.281,0,.122.214.139,2.1.143,2.055.008,4.324.08,4.832.151s8.786.076,9.236,0a2.727,2.727,0,0,0,.891-.256,3.016,3.016,0,0,0-.6-.1c-1.345-.16-2.891-.269-4.53-.315l-.983-.029.332-.193a7.48,7.48,0,0,0,2.16-1.941c.261-.361.311-.4.361-.328a.953.953,0,0,0,.248.168c.256.147.5.181,1.832.256,2.723.147,10.786.206,13.026.092a11.7,11.7,0,0,0,3.029-.349c.139-.067.168-.118.29-.445a93.748,93.748,0,0,0,2.475-10.5,17.4,17.4,0,0,0,.307-2.656l0-.387h.109c.126,0,.256.172.256.345a.831.831,0,0,0,.244.492c.122.067.143.059.113-.038-.013-.046-.017-.084-.008-.084s.185.223.387.492c.517.693,1.227,1.609,2.008,2.609l.668.849-.126.16a10.216,10.216,0,0,0-.971,1.609,10.314,10.314,0,0,0-.992,3.437,3.161,3.161,0,0,1-.172.761,1.694,1.694,0,0,0-.13.588.708.708,0,0,0,.29.727.488.488,0,0,0,.378.13,1.581,1.581,0,0,0,.349-.029l.13-.034.055.315c.122.744.387,1.181,1.605,2.689a4.641,4.641,0,0,1,.828,1.26c0,.008-.71.067-1.563.126a30.843,30.843,0,0,0-3.24.34c-.832.143-1.118.214-1.206.307s-.08.08.05.193c.118.1.168.109.433.109.395,0,1.719-.071,2.382-.13a3.733,3.733,0,0,1,1.113.042,19.828,19.828,0,0,0,3.7.122c.878-.034,2.374-.05,4.3-.042,3.777.017,5.475-.055,5.836-.24l.143-.071-.109-.13c-.105-.126-.113-.126-.622-.155-.819-.046-1.542-.113-1.866-.172-.408-.076-.647-.143-.647-.181a1.6,1.6,0,0,1,.282-.219,7.2,7.2,0,0,0,1.79-1.92,7.866,7.866,0,0,0,1.059-2.857,8.081,8.081,0,0,0-.046-2.723c-.034-.164-.109-.517-.168-.79a4.751,4.751,0,0,0-.819-1.941A5.588,5.588,0,0,0,51.749-601l-.261-.181.328-.063a3.46,3.46,0,0,0,.588-.181c.689-.311.74-.824.134-1.374a4.17,4.17,0,0,0-1.269-.735,3.992,3.992,0,0,0-1.508-.307c-.357-.021-.887-.059-1.177-.084a19.621,19.621,0,0,0-3.088.063,7.4,7.4,0,0,0-3.008,1.1l-.315.219-.735-.933c-.4-.508-1.2-1.517-1.773-2.24s-1.038-1.319-1.038-1.332.08.017.181.059a2.547,2.547,0,0,0,1.092.147c.324-.029.328-.034.433-.193.315-.5.307-1.185-.029-3.017a11.936,11.936,0,0,1-.155-1.244l-.029-.546-.357-.013a2.176,2.176,0,0,0-2.231,1.555,1.837,1.837,0,0,1-.105.286,1.9,1.9,0,0,1-.151-.273,6.142,6.142,0,0,0-1.08-1.4A10.518,10.518,0,0,0,34.64-613,.677.677,0,0,0,34.383-612.811Zm-.42,1.592a.771.771,0,0,1-.147.105c-.092.055-.155.067-.172.042a.425.425,0,0,0-.16-.105c-.126-.055-.118-.055.176-.059A1.469,1.469,0,0,1,33.963-611.218Zm.828,1.924a1.688,1.688,0,0,1,.336.227l.16.147-.168-.105a3.606,3.606,0,0,0-.441-.218,1.555,1.555,0,0,1-.315-.151C34.3-609.458,34.581-609.391,34.791-609.294Zm1.534,4.483c-.013.21,0,.265.076.34l.088.088-.1.429-.1.429-.034-.252a3.726,3.726,0,0,1,.067-1.281S36.329-604.945,36.325-604.811Zm-1.647,7.962a.413.413,0,0,1-.109.181l-.105.118.1-.176C34.665-596.924,34.678-596.937,34.678-596.848ZM17.66-595.323c.1.345.189.643.2.668s-.176.055-.58.076c-.328.013-.6.021-.6.017s0-.277.017-.6l.021-.584.294-.1C17.492-596,17.454-596.029,17.66-595.323Zm16.5.479c-.374,1.361-.513,1.634-.971,1.891a1.827,1.827,0,0,0-.387.307.565.565,0,0,1-.458.231,66.652,66.652,0,0,1-7.5.134c-4.223-.08-7.366-.21-7.857-.324a2.624,2.624,0,0,1-.8-.269,1.365,1.365,0,0,1,.08-.223c.076-.176.1-.193.265-.214.508-.063,1.609-.126,2.282-.126a4.573,4.573,0,0,1,2.437.521,4.921,4.921,0,0,0,1.42.483,11.443,11.443,0,0,0,2.908-.084,14.951,14.951,0,0,1,3.109-.273,9.907,9.907,0,0,0,2.513-.185,2.693,2.693,0,0,0,1.668-1.147c.454-.714.6-.9.483-.626a1.638,1.638,0,0,0-.088.391l-.029.244.1-.084a7.7,7.7,0,0,0,.819-1.08,1.224,1.224,0,0,1,.181-.265C34.341-595.537,34.262-595.222,34.157-594.844Z" transform="translate(0)" fill="none" stroke="#053361" stroke-width="0.6"/>
  </g>
</svg>
