<svg xmlns="http://www.w3.org/2000/svg" width="20.556" height="9.624" viewBox="0 0 20.556 9.624">
  <g id="_309527" data-name="309527" transform="translate(-0.019 613.22)">
    <path id="Trazado_1" data-name="Trazado 1" d="M13.024-612.929a1.027,1.027,0,0,1-.7.252,5.541,5.541,0,0,0-.6.077.775.775,0,0,0-.328.214.1.1,0,0,0-.006.084.1.1,0,0,0,.063.056c.03.011.046.027.046.047s.017.037.063.051.084.014.225-.022c.09-.022.19-.046.225-.05a1.513,1.513,0,0,0,.173-.047,1.1,1.1,0,0,1,.213-.046l.173-.019c.047-.006.063,0,.049.006a.041.041,0,0,0-.009.049c.009.03.03.039.085.037.028,0,0,.027-.08.075l-.06.037v-.046c0-.065-.024-.094-.052-.069a.1.1,0,0,0-.025.121c.022.027.028.021-.14.14a.907.907,0,0,0-.3.313c-.028.066-.037.071-.143.1a4.835,4.835,0,0,0-1.087.525c-.21.132-.672.471-.948.7-.143.117-.156.123-.213.112a.483.483,0,0,0-.288,0,.747.747,0,0,0-.148.066c-.08.055-.761.391-.937.463a1.577,1.577,0,0,1-1.353.06.871.871,0,0,1-.262-.2,1.283,1.283,0,0,0-.635-.38.862.862,0,0,0-.424.017l-.066.027-.115-.057a1.367,1.367,0,0,0-.249-.09,1.654,1.654,0,0,0-.536-.025,3.774,3.774,0,0,0-.882.093,3.01,3.01,0,0,0-.926.37c-.049.031-.17.1-.27.15a3.583,3.583,0,0,0-.317.187,4.35,4.35,0,0,0-.436.353l-.066.058-.021-.056a.49.49,0,0,0-.283-.23c-.09-.031-.145.008-.22.154a.988.988,0,0,0-.11.427c0,.132.03.187.124.21a.34.34,0,0,1,.066.019.457.457,0,0,1-.055.088,3.878,3.878,0,0,0-.3.5,5.342,5.342,0,0,1-.359.614,2.682,2.682,0,0,0-.335.666.218.218,0,0,0,.082.255c.05.028.08.031.317.03a.889.889,0,0,0,.565-.124.787.787,0,0,1,.09-.055.378.378,0,0,1,0,.091,1.553,1.553,0,0,0,.008.274,2.546,2.546,0,0,0,.764,1.612,2.6,2.6,0,0,0,.567.441,4.9,4.9,0,0,1-.712.017l-.2-.017-.028.022c-.112.047.028.051.028.072l.2.09h.324a7.27,7.27,0,0,1,1.26.09c.19.027,1.931-.061,2.1-.09a1.208,1.208,0,0,0,.338-.162c-.074-.02.076,0,0,0-.5-.06.049.017-.566,0H5l.124-.072a2.8,2.8,0,0,0,.81-.727c.1-.135.117-.15.135-.123a.358.358,0,0,0,.093.063c.1.055.187.068.687.1,1.021.055,4.043.077,4.882.034a4.388,4.388,0,0,0,1.135-.131c.052-.025.063-.044.109-.167a35.136,35.136,0,0,0,.928-3.936,6.521,6.521,0,0,0,.115-1v-.145h.041c.047,0,.1.064.1.129a.312.312,0,0,0,.091.184c.046.025.054.022.042-.014,0-.017-.006-.031,0-.031a2.24,2.24,0,0,1,.145.184c.194.26.46.6.753.978l.25.318-.047.06a3.825,3.825,0,0,0-.364.6,3.866,3.866,0,0,0-.372,1.288,1.186,1.186,0,0,1-.064.285.635.635,0,0,0-.049.22.265.265,0,0,0,.109.273.183.183,0,0,0,.142.049.593.593,0,0,0,.131-.011l.049-.013.021.118c.046.279.145.443.6,1.008a1.631,1.631,0,0,0,.888.626l1.024.264h.842a1.421,1.421,0,0,0,.919-.452,2.7,2.7,0,0,0,.671-.72,2.949,2.949,0,0,0,.4-1.071,3.029,3.029,0,0,0-.017-1.021c-.013-.061-.041-.194-.063-.3a1.78,1.78,0,0,0-.307-.728,2.093,2.093,0,0,0-.414-.42l-.1-.068.123-.024a1.29,1.29,0,0,0,.22-.068c.258-.117.277-.309.05-.515a1.565,1.565,0,0,0-.476-.275,1.5,1.5,0,0,0-.565-.115c-.134-.008-.332-.022-.441-.031a7.353,7.353,0,0,0-1.157.024,2.775,2.775,0,0,0-1.127.412l-.118.082-.275-.35-.665-.84c-.215-.271-.389-.494-.389-.5s.03.006.068.022a.954.954,0,0,0,.409.055c.121-.011.123-.013.162-.072.118-.187.115-.444-.011-1.131a4.48,4.48,0,0,1-.058-.466l-.011-.2h-.134a.816.816,0,0,0-.836.583.683.683,0,0,1-.039.107.71.71,0,0,1-.057-.1,2.3,2.3,0,0,0-.4-.525,3.941,3.941,0,0,0-.583-.492.254.254,0,0,0-.1.071Zm-.157.6a.288.288,0,0,1-.055.039c-.034.021-.058.025-.064.016a.159.159,0,0,0-.06-.039c-.047-.021-.044-.021.066-.022a.544.544,0,0,1,.114.007Zm.31.721a.632.632,0,0,1,.126.085l.06.055-.063-.039a1.342,1.342,0,0,0-.165-.082.585.585,0,0,1-.118-.057c-.024-.024.082,0,.16.038Zm.575,1.68c0,.079,0,.1.028.127l.033.033-.037.161-.037.161-.013-.094a1.4,1.4,0,0,1,.025-.48s0,.043,0,.093Zm-7,3.557c.037.129.071.241.075.25s-.066.021-.217.028c-.123,0-.225.008-.225.006s0-.1.006-.225l.008-.219.11-.037c.184-.06.17-.071.247.194Z" fill="none" stroke="#053361" stroke-width="0.4"/>
  </g>
</svg>
