<svg xmlns="http://www.w3.org/2000/svg" width="96.86" height="59.954" viewBox="0 0 96.86 59.954">
  <g id="_2028207" data-name="2028207" transform="translate(0.392 787.467)">
    <path id="Trazado_1" data-name="Trazado 1" d="M52.9-786.855a2.346,2.346,0,0,1,1.108.914c.172.232.592.764.929,1.176s.652.831.712.936a3.175,3.175,0,0,1,.112,1.123,2.918,2.918,0,0,0,.2,1.431,7.439,7.439,0,0,1,.382,1.715c.022.172.075.195.689.315a3.47,3.47,0,0,0,.786.09c.082-.022.135-.157.165-.419.067-.517.18-.637.487-.479.367.187.786.727,1.558,2.015a16.425,16.425,0,0,0,.936,1.43l.195.225.127-.247c.12-.225.12-.262,0-.569-.195-.517-.12-.659.569-1.056s.689-.4.816-.854.307-.824.4-.824c.045,0,.06.172.03.487l-.045.487.682.951c2.007,2.8,2.277,3.123,2.951,3.52.464.27.479.292.479.577,0,.255.127.487.831,1.573a12.78,12.78,0,0,0,1.693,2.4c.652.652,1.034.816,2.831,1.221a21.982,21.982,0,0,1,8.486,3.9c.959.644,2.135,1.43,2.614,1.738a3.48,3.48,0,0,1,.786.584,8.563,8.563,0,0,1-1.041-.2c-.524-.127-1.633-.374-2.457-.562a6.48,6.48,0,0,1-2.824-1,6.158,6.158,0,0,0-2.868-1.258c-.247-.022-1.228.008-2.179.075s-2.554.165-3.573.217-1.872.12-1.895.142.419,1.011.981,2.2,1.453,3.048,1.962,4.134.936,2,.959,2.015.142-.09.277-.232c.247-.262.262-.262.7-.225s.449.037.652-.225a.739.739,0,0,1,.981-.24c.27.127.277.127.554-.052.472-.315.667-.315,1.221-.008a.861.861,0,0,0,.33-.2.811.811,0,0,1,1.041-.067.409.409,0,0,0,.4.1,1.481,1.481,0,0,1,1.176.037c.262.165.277.165.562.037a.955.955,0,0,1,1.093.2c.24.21.285.225.509.157a1,1,0,0,1,1.011.344c.195.2.24.225.419.157a.807.807,0,0,1,1.078.382c.112.232.15.255.472.262a.965.965,0,0,1,.9.524c.135.232.18.255.509.255.427,0,.824.27.824.562a.414.414,0,0,0,.4.412,1.269,1.269,0,0,1,.517.262c.262.2.345.315.367.5.022.225.045.247.3.27a.954.954,0,0,1,.764.861c.045.3.082.345.345.449a.97.97,0,0,1,.6.846c0,.262.09.359.389.434s.464.367.472.846c0,.367.03.434.24.607a1.1,1.1,0,0,1,.434.951c0,.33.022.382.21.472.285.142.374.412.322.981-.045.419-.03.494.1.644.195.21.345.771.225.891a.5.5,0,0,0,.082.614.92.92,0,0,1,.075,1.049l-.165.277.15.359a.958.958,0,0,1,0,1.034c-.15.2-.15.225-.03.464a1.033,1.033,0,0,1,.007.981c-.067.1-.172.24-.232.322a.391.391,0,0,0-.037.412,1.028,1.028,0,0,1-.195.981.448.448,0,0,0-.112.584.676.676,0,0,1-.007.442.635.635,0,0,1-.367.479c-.337.187-.389.307-.292.652.06.21.037.292-.112.532a.663.663,0,0,1-.352.315c-.15.022-.172.067-.172.322a1.152,1.152,0,0,1-.622,1.086c-.315.172-.359.217-.4.509a.972.972,0,0,1-.614.779c-.165.022-.247.142-.315.464s-.517.741-.719.682-.517.217-.517.449a.756.756,0,0,1-.644.562.528.528,0,0,0-.509.434.978.978,0,0,1-.929.539c-.4,0-.539.112-.539.449a.213.213,0,0,1-.135.195,2.14,2.14,0,0,0-.285.12.557.557,0,0,1-.434-.022c-.27-.1-.277-.1-.517.165a1.082,1.082,0,0,1-1.108.389c-.464-.037-.487-.03-.569.15a.615.615,0,0,1-.352.277c-.24.075-.292.067-.464-.067-.277-.217-.449-.195-.644.067a.98.98,0,0,1-.449.315c-.255.075-.307.067-.584-.112-.367-.247-.412-.247-.569-.015-.1.157-.18.187-.487.187-.345,0-.457-.067-.487-.285-.03-.157-.082-.187-.292-.135a.363.363,0,0,0-.24.18c-.075.195-.18.24-.569.24-.307,0-.367-.022-.427-.187a.419.419,0,0,0-.27-.232c-.165-.045-.232-.015-.345.15a.542.542,0,0,1-.914-.135c-.06-.232-.3-.262-.682-.075a.475.475,0,0,1-.532-.008,1.519,1.519,0,0,1-.5-.382c-.2-.247-.232-.255-.569-.21s-.374.03-.712-.262c-.4-.345-.4-.345-.809-.217-.262.075-.3.075-.4-.075a.352.352,0,0,0-.217-.165c-.052,0-.142-.127-.187-.277-.12-.382-.255-.479-.532-.382-.195.067-.247.045-.479-.172a.785.785,0,0,1-.262-.419.473.473,0,0,0-.554-.367c-.27.067-.719-.352-.719-.674a.426.426,0,0,0-.412-.479c-.217,0-.637-.464-.637-.712a.535.535,0,0,0-.442-.487.789.789,0,0,1-.374-.262.735.735,0,0,1-.232-.562c0-.292-.195-.6-.374-.6-.135,0-.374-.479-.374-.742,0-.21-.067-.315-.337-.562-.419-.389-.532-.689-.412-1.063.082-.255.075-.285-.127-.5-.315-.345-.442-.682-.33-.921.09-.21.09-.217-.27-.689a.924.924,0,0,1-.157-1.026c.075-.285.075-.367-.03-.547a1.081,1.081,0,0,1-.09-.974c.1-.277.1-.307-.082-.7-.232-.5-.232-.562.007-.921a.549.549,0,0,0,.142-.517,1.4,1.4,0,0,1,.15-1.138c.172-.262.18-.3.075-.457a.854.854,0,0,1,.15-1.034.935.935,0,0,0,.262-.674,1.076,1.076,0,0,1,.374-.936c.217-.157.225-.18.18-.562a.715.715,0,0,1,.1-.629,1.114,1.114,0,0,1,.389-.315.553.553,0,0,0,.315-.577c-.037-.165.3-.7.434-.7.187,0,.285-.142.419-.607s.359-.741.592-.741a.586.586,0,0,0,.487-.442c0-.232.292-.524.6-.607.262-.067.3-.12.412-.457a1.122,1.122,0,0,1,.307-.494c.1-.06.18-.15.18-.2,0-.172-3.617-6.838-4.239-7.819-.277-.434-.412-.472-.712-.217a19.119,19.119,0,0,0-3.138,5.565,24.943,24.943,0,0,0-1.019,3.7,10.251,10.251,0,0,1-.322,1.311,3.247,3.247,0,0,1-.846,1.086,29.945,29.945,0,0,1,.389-5.565,6.678,6.678,0,0,0,.1-1.093c-.067-.067-.839.786-1,1.123a2.759,2.759,0,0,0-.232.727c-.1.5-.157.592-.472.674-.195.052-.292.172-.659.846-.24.427-.427.8-.434.839s.082.037.18.008c.487-.12,1.535.756,1.168.981-.045.022-.075.12-.075.21a1.188,1.188,0,0,1-.187.464c-.232.382-.232.434.03.809A15.81,15.81,0,0,1,57.5-749.3c.052.142.345.786.652,1.423a9.408,9.408,0,0,1,.966,3.071c.36,2.239.157,3.363-.734,4.029-.21.15-.427.315-.494.367a3.691,3.691,0,0,1-1.97-.524c-1.116-.711-2.1-2.209-3.131-4.733a5.453,5.453,0,0,0-.494-1.049,4.165,4.165,0,0,0-.554.711,9.915,9.915,0,0,1-6.389,4.089,55.808,55.808,0,0,1-6.568.12c0-.037.195-.1.427-.12.637-.075.846-.12.846-.2,0-.037-.232-.067-.517-.067-.5,0-.532.007-.831.3a3.037,3.037,0,0,1-.532.419c-.2.1-.24.1-.667-.12-.517-.262-.524-.262-.524-.112,0,.135.037.135-.524-.008a3.353,3.353,0,0,0-1.827.127,5.283,5.283,0,0,0-1.91.682c-.682.524-.786.584-1.019.584a.662.662,0,0,1-.607-.487c-.045-.195-.03-.292.127-.846.082-.27.082-.33-.022-.434s-.142-.1-.33-.007a6.9,6.9,0,0,1-.741.277,2.716,2.716,0,0,0-1.266.674,1.063,1.063,0,0,1-.277.225c-.157,0-.112.255.1.494.232.262.232.262.142.689-.112.5-.262.764-.442.764-.3.008-.337.112-.165.517l.172.382-.2.472c-.247.562-.367.7-.652.764s-.33.157-.18.487c.127.292.127.292-.075.652-.322.554-.479.7-.771.7h-.255l.052.359c.045.345.03.382-.292.794-.412.532-.539.622-.876.659-.247.023-.255.03-.232.33.022.277-.007.33-.427.726-.434.419-.449.427-.786.382l-.345-.052v.277c0,.292-.322.794-.5.794-.052,0-.172.1-.262.232-.165.225-.187.232-.607.18-.382-.037-.427-.03-.427.1,0,.2-.359.509-.794.674-.367.15-.382.15-.6.015-.359-.225-.554-.255-.554-.1,0,.307-.352.667-.824.839-.532.195-.794.165-1.078-.12-.112-.1-.217-.18-.232-.157a1.729,1.729,0,0,0-.09.419l-.045.374-.389.052c-.569.067-.764-.007-.944-.352-.195-.382-.389-.359-.442.052-.03.217-.082.322-.225.389a2.663,2.663,0,0,1-1.3.022,2.026,2.026,0,0,0-.7.008,3.242,3.242,0,0,1-.854.03c-.479-.06-.472-.052-.8-.884-.045-.112-.112-.2-.15-.2a2.1,2.1,0,0,0-.449.3c-.374.3-.382.3-.734.217-.517-.127-.682-.247-.779-.607-.135-.464-.172-.487-.517-.247l-.3.21-.427-.217c-.427-.217-.434-.225-.427-.532.007-.285-.015-.322-.217-.4-.15-.045-.255-.052-.315,0a2.406,2.406,0,0,1-.359.187c-.27.112-.277.112-.472-.1a.928.928,0,0,0-.374-.262c-.217-.06-.292-.307-.225-.764.052-.4-.067-.487-.449-.3a1.308,1.308,0,0,1-.337.12,2.268,2.268,0,0,1-.741-.719,1.147,1.147,0,0,1,.127-.359c.187-.4.052-.517-.494-.449l-.419.045L3.3-733.41c-.345-.412-.382-.592-.2-1.011.157-.374.03-.494-.472-.442l-.374.03-.2-.419c-.195-.419-.2-.427-.06-.622.075-.1.165-.24.21-.3.1-.142-.1-.292-.479-.352s-.532-.217-.532-.487a.46.46,0,0,0-.112-.307c-.165-.135-.142-.277.12-.6.315-.389.277-.614-.12-.711-.427-.1-.449-.135-.562-.6l-.1-.419.285-.292c.315-.322.315-.33-.052-.509a.8.8,0,0,1-.434-.8.73.73,0,0,0-.082-.389c-.06-.06,0-.142.232-.315a1.973,1.973,0,0,1,.374-.232c.037,0,.082-.052.1-.12.052-.142-.075-.4-.2-.4a.708.708,0,0,1-.307-.21c-.195-.217-.2-.217-.1-.659.082-.359.142-.464.345-.607a2.048,2.048,0,0,1,.337-.195c.052-.022.015-.09-.1-.187a.722.722,0,0,1-.3-.809,1.212,1.212,0,0,0,.082-.4c0-.24.157-.4.539-.562.307-.135.4-.292.24-.427a1.1,1.1,0,0,1-.225-.315c-.1-.2-.1-.247.045-.607.217-.5.33-.622.644-.682.217-.037.255-.075.21-.172a1.141,1.141,0,0,1,.037-.981.853.853,0,0,0,.157-.285c0-.142.307-.345.652-.434.382-.1.374-.075.277-.644a.471.471,0,0,1,.15-.487c.1-.12.262-.292.345-.389a.513.513,0,0,1,.442-.165c.292,0,.3-.008.345-.277.022-.157.06-.352.075-.434a1.62,1.62,0,0,1,.412-.472,1.162,1.162,0,0,1,.779-.367l.4-.045.052-.359c.045-.344.075-.374.487-.629.487-.292.569-.307.809-.142.195.135.285.1.345-.165a1.078,1.078,0,0,1,.6-.719c.494-.255.7-.285,1.026-.165.352.12.442.09.442-.157s.157-.374.712-.562l.487-.165.232.195c.247.21.442.18.584-.1a1.138,1.138,0,0,1,.861-.442c.427-.067.487-.052.9.24l.2.142.247-.277c.24-.255.277-.27.726-.27s.487.015.689.262.509.352.614.195-.719-.622-2.359-1.341c-.472-.21-1.116-.524-1.423-.7s-1.67-.861-3.018-1.52c-2.067-1.011-2.464-1.228-2.509-1.386a5.3,5.3,0,0,1,.315-2.584,1.791,1.791,0,0,1,.629-.427,6.9,6.9,0,0,0,.7-.367.709.709,0,0,1,.36-.142c.1,0,1.266.562,2.606,1.243l2.434,1.251.18-.217c.1-.12.3-.367.449-.547l.277-.33.914.045.914.045.195-.21a2.257,2.257,0,0,0,.33-.479l.135-.277.442.315c.247.165.607.434.8.6a1.539,1.539,0,0,0,.786.374c.839.157,1,.217,1.116.4s.12.172.262.03c.315-.315,1.663-.165,6.007.674,1.49.292,3.041.577,3.438.644.884.142.906.15,1,.359a.957.957,0,0,0,.824.382c.255.007.3-.015.322-.157s.09-.172.367-.217a3.673,3.673,0,0,1,.7-.008c.4.052.442-.045.052-.127-.135-.03-2.741-.5-5.789-1.063-4.059-.734-5.677-1-6.067-1a2.6,2.6,0,0,1-1.131-.217,17.135,17.135,0,0,1-3.138-1.513,1.474,1.474,0,0,0-.449-.225,27.153,27.153,0,0,1-4.329-2.487c-.936-.629-1.019-.741-.712-1.049.157-.157.187-.157,1.887-.112,2.561.075,2.674.157.27.2l-2.06.037.824.292c1.7.6,5.235,1.932,5.789,2.187a4.3,4.3,0,0,1,.726.389c.082.067.1.075.052.015a.443.443,0,0,1-.09-.18c0-.045.15.082.337.277a1.42,1.42,0,0,1,.337.494,6.736,6.736,0,0,0,1.251,1.468c.247.172.21.067-.09-.3a2.445,2.445,0,0,1-.367-.644,1.294,1.294,0,0,0-.434-.592c-.659-.539-.749-.652-.7-.9a.493.493,0,0,0-.1-.442.773.773,0,0,1-.157-.352,1.35,1.35,0,0,0-.337-.487c-.352-.374-.4-.5-.247-.652.067-.067.067-.09,0-.09a2.88,2.88,0,0,1-1.131-.524,1.556,1.556,0,0,0-.682-.33,12.742,12.742,0,0,0-3.3-.037c-3.677.1-3.513.1-4.426.172-.824.06-1.3.015-1.243-.127.052-.165-.292-.412-.659-.464-.592-.09-.659-.18-.142-.187a5.087,5.087,0,0,0,.689-.045c.225-.045.225-.052.12-.217s-.1-.18.037-.255c.112-.067.172-.052.27.037s.142.1.21.037a8.236,8.236,0,0,1,2.779.075c-.082.135,1.071.225,3.8.285,1.992.045,2.232.06,2.367.187s.157.127.359-.1.225-.232.824-.232c.756,0,1.857.112,6.1.637,10.515,1.288,14.17,1.431,17.293.674.427-.1,1.738-.457,2.921-.794a18.292,18.292,0,0,1,3.415-.816,2.157,2.157,0,0,0,1.46-.719,14.81,14.81,0,0,1,2.194-1.693c.3-.172.352-.24.352-.434a2.616,2.616,0,0,1,.479-1.221,2.117,2.117,0,0,1,.592-.464c1.153-.569,2.269.262,2.816,2.112.09.3.2.554.255.554a2.1,2.1,0,0,0,.667-.09c.255-.067.277-.1.36-.479a.791.791,0,0,0-.36-.974,1.407,1.407,0,0,1-.584-.861,1.056,1.056,0,0,0-.142-.375,2.7,2.7,0,0,1-.225-.374c-.172-.345-.165-.345-.322-.2a2.664,2.664,0,0,1-1.431.322c-.9-.12-.906-.12-1.056-.427a1.33,1.33,0,0,1-.15-.412c0-.09-.045-.112-.195-.075a1.192,1.192,0,0,1-.966-.554.8.8,0,0,1,.532-1.168,1.8,1.8,0,0,0,.562-.367,2.263,2.263,0,0,1,.674-.4,4.538,4.538,0,0,0,.629-.24l.307-.142.007-.464a4.129,4.129,0,0,1,.06-.712c.09-.382-.367-1.153-.989-1.7l-.509-.434-.756.045-.764.045-.195-.232a4.784,4.784,0,0,1-.906-2.966c.075-.464.21-.584.652-.584h.382l.09-.322C51.992-786.982,52.224-787.1,52.9-786.855Zm-1.73,2.142c.075,1.655.449,2.374,1.146,2.2l.195-.052-.187-.247a4.709,4.709,0,0,1-.577-1.872c-.09-.674-.232-.936-.517-.944C51.145-785.627,51.13-785.462,51.168-784.713Zm3.677,3.071c.06.135.21.472.337.749a2.969,2.969,0,0,1,.232.622c0,.06.03.112.075.112.112,0,.09-.494-.03-.786a2.708,2.708,0,0,0-.652-.936C54.77-781.882,54.785-781.77,54.845-781.642Zm3.617,2.966c.172.225.756.652.816.6.022-.03-.082-.225-.225-.434a2.007,2.007,0,0,1-.27-.472,1.552,1.552,0,0,0-.21-.419l-.2-.345-.022.442A.88.88,0,0,0,58.463-778.677Zm-.082,1.019a.706.706,0,0,0,.12.464,5.994,5.994,0,0,0,1.633.509,5.193,5.193,0,0,0-1.685-1.348C58.4-778.018,58.373-777.853,58.38-777.658Zm5.048.749a.175.175,0,0,0,.12.15c.187.075.225-.015.06-.142S63.428-777.036,63.428-776.909Zm-5.115.592c-.21.277-.112.359.5.4.584.052.614-.008.225-.389C58.725-776.617,58.53-776.624,58.313-776.317Zm6.156.524a.606.606,0,0,0,.607.427c.06,0-.075-.187-.3-.412a1.667,1.667,0,0,0-.434-.375A.962.962,0,0,0,64.469-775.793Zm-.27-.007c.022.06.045.037.045-.045s-.015-.127-.037-.1A.152.152,0,0,0,64.2-775.8Zm-6.164,1.191c.052.082.1.135.127.112.06-.06-.037-.27-.127-.27C57.983-774.767,57.983-774.722,58.036-774.61Zm-1,.09c-.12.082-.112.12.09.449.315.479.457.472.457-.045a1.158,1.158,0,0,0-.052-.449A.482.482,0,0,0,57.04-774.52Zm-3.647.262a1.525,1.525,0,0,0-.509,1.093c.022.285.03.292.509.464.547.195.674.322.674.682,0,.2.037.255.187.292a2.573,2.573,0,0,0,1.318-.187c.15-.12.157-.157.082-.509a2.6,2.6,0,0,0-1.168-1.91A1.129,1.129,0,0,0,53.392-774.258Zm6.254.539c-.022.037.007.075.067.075s.12-.037.12-.075a.069.069,0,0,0-.067-.075A.142.142,0,0,0,59.646-773.719Zm-.786.4a25.343,25.343,0,0,0,2.037,3.835,21.054,21.054,0,0,0-.914-1.9C59.144-773.029,58.86-773.516,58.86-773.314ZM62.9-771.7a.075.075,0,0,0,.075.075.081.081,0,0,0,.075-.075.075.075,0,0,0-.075-.075A.071.071,0,0,0,62.9-771.7Zm.03.756c-.112.307-.135,1.026-.037.921a3.771,3.771,0,0,0,.307-1.1C63.2-771.337,63.039-771.232,62.934-770.94Zm-.554.15a.069.069,0,0,0,.075.067c.037,0,.075-.052.075-.12s-.037-.09-.075-.067A.142.142,0,0,0,62.38-770.79Zm1.108.352a4.342,4.342,0,0,1-.352.7l-.225.33.172.292a.863.863,0,0,0,.24.3c.1.015.457-.689.554-1.093a.719.719,0,0,0-.037-.614c-.075-.15-.15-.27-.18-.27A1.062,1.062,0,0,0,63.488-770.438Zm1.438.532a1.639,1.639,0,0,0,.24.5c.277.4.547.532.906.427l.24-.067-.36-.172a1.113,1.113,0,0,1-.352-.217,2.015,2.015,0,0,0-.592-.614C64.964-770.049,64.926-769.989,64.926-769.906Zm-56.771.075c0,.037.1.082.232.112.547.1,1.146.008.794-.127A2.553,2.553,0,0,0,8.155-769.831Zm1.453.12c-.135.1-.12.112.187.1.187-.015.345-.067.367-.12C10.2-769.861,9.788-769.854,9.608-769.712Zm.944.03c.367.112.9.165.9.09,0-.1-.187-.142-.674-.142C10.477-769.734,10.417-769.719,10.552-769.682Zm53.371.711a2.3,2.3,0,0,0-.27.644,11.328,11.328,0,0,0,1.138-.419c.045-.03-.075-.285-.367-.764-.06-.1-.127-.165-.142-.142S64.1-769.33,63.923-768.97ZM11.75-769.6c0,.037.052.075.112.075s.112-.037.112-.075-.052-.075-.112-.075S11.75-769.644,11.75-769.6Zm39.432.659c.045.037.629.449,1.311.914,1.108.764,2.449,1.723,3.123,2.232.135.1.247.165.247.142,0-.052-1.318-1.131-2.494-2.03a8.535,8.535,0,0,1-.951-.8c0-.037.075-.067.165-.067a31.784,31.784,0,0,1,3.273.779,6.835,6.835,0,0,0,.966.24,6.328,6.328,0,0,0-1.46-1.026c-.569-.285-.794-.247-.285.045.756.427.884.517.809.539-.045.015-1-.187-2.135-.457a20.09,20.09,0,0,0-2.494-.562C51.175-769,51.145-768.97,51.183-768.94Zm16,.472c-1.116.322-1.131.4-.082.337.472-.022,1.243-.045,1.715-.045a3.436,3.436,0,0,0,.809-.045c-.03-.03-1.363-.427-1.618-.472C68-768.7,67.622-768.6,67.18-768.468Zm-20.222.659c-.082.052-.03.09.187.142.157.045,1.019.27,1.9.509,1.58.419,2.779.7,2.988.7.622.008-2.981-1.153-4.262-1.371A1.634,1.634,0,0,0,46.959-767.809Zm-.592-.022c-.09.03-.165.082-.165.12,0,.075.292.008.4-.1C46.7-767.892,46.614-767.892,46.367-767.832Zm-25.255.434a2.438,2.438,0,0,0,.464.195,1.778,1.778,0,0,1,.749.464,2.186,2.186,0,0,0,.936.547,3.545,3.545,0,0,1,1.453.764c.33.3.367.442.135.509-.082.03-.135.067-.112.09a1.039,1.039,0,0,0,.4-.09l.359-.135,1.161.344c1.685.5,1.8.524,1.887.434a.351.351,0,0,1,.217-.082c.127,0,.127-.015-.015-.277-.075-.15-.127-.3-.1-.337.075-.12.644.255.876.584s.442.4.487.165c.03-.15-.6-.809-.944-.989-.247-.127-3.138-.966-6.007-1.738C21.367-767.4,21.112-767.457,21.112-767.4Zm43.776.344a.38.38,0,0,0,.06.27c.12.232.2.157.15-.142C65.061-767.128,64.971-767.188,64.889-767.053Zm-.412.1c0,.023.03.06.075.082s.075.008.075-.03a.082.082,0,0,0-.075-.082C64.507-766.978,64.477-766.963,64.477-766.948Zm-5.093-.007a2.684,2.684,0,0,0,.315.315l.315.3-.247-.322C59.564-766.918,59.384-767.06,59.384-766.955Zm1.708,2.464a1.891,1.891,0,0,0,.315.419,3.729,3.729,0,0,0-.577-.929A1.565,1.565,0,0,0,61.091-764.491Zm5.153-.21a1.491,1.491,0,0,0-.517.277c-.052.082.052.359.36.966.682,1.363,3.116,5.947,3.213,6.052.075.075.142.075.352-.015.352-.15.569-.037.816.4.285.524.27.18-.022-.539-.524-1.258-3.131-6.621-3.475-7.153C66.828-764.918,66.806-764.918,66.244-764.7ZM46.839-763.51a16.347,16.347,0,0,0-2.487,1.6c.067.067,4.314-2.449,4.793-2.839A12.164,12.164,0,0,0,46.839-763.51Zm-24.154-1.3c0,.082.434.142,1.034.142s.4-.082-.307-.142c-.337-.022-.637-.052-.674-.052S22.685-764.851,22.685-764.813Zm42.705,1.693c.135.27.255.457.27.419a3.081,3.081,0,0,0-.479-.906A3.187,3.187,0,0,0,65.39-763.121Zm-57.647-.345c-.045.082.472.27.547.195s-.2-.262-.367-.262A.248.248,0,0,0,7.743-763.465ZM31-763.278c0,.022.03.06.075.082s.075.007.075-.03a.082.082,0,0,0-.075-.082C31.028-763.308,31-763.293,31-763.278Zm-23.749.5c-.12.292.007.449.232.307.2-.12.225-.112.225.06,0,.2.12.187.27-.037.127-.195.075-.374-.09-.307-.06.022-.157-.037-.225-.142C7.519-763.113,7.376-763.068,7.249-762.776Zm20.117-.157a.232.232,0,0,0,.172.075c.112,0,.112-.015.015-.075C27.4-763.031,27.306-763.031,27.366-762.934Zm-8.328.315c-.374.367-.442.375-1.633.09l-.846-.195-.554.165c-.629.187-.854.344-.726.494a19.169,19.169,0,0,0,3.026,1.588c1.026.494,2.164,1.034,2.524,1.206l.652.315.052.412a1.03,1.03,0,0,0,.112.449.337.337,0,0,1,.067.24,1.305,1.305,0,0,0,.614.914c.18.135,1.064.607,1.97,1.064s2.412,1.228,3.348,1.723a14.585,14.585,0,0,0,1.768.854,1.31,1.31,0,0,0,.157-.449l.09-.412-.285-.285a4.458,4.458,0,0,1-.7-1.221c-.225-.517-.584-1.258-.8-1.648a2.241,2.241,0,0,1-.322-.771,9.114,9.114,0,0,1,1.58.052c.839.067,1.985.165,2.539.21a10.063,10.063,0,0,0,8.538-2.943,4.23,4.23,0,0,0,.569-.569,7.046,7.046,0,0,0-.914.487,11.239,11.239,0,0,1-1.056.569,29.675,29.675,0,0,1-3.782-.592c-.367-.09-.457-.1-.682,0a13.6,13.6,0,0,1-4.164.375h-2.2l-.157-.217a3.565,3.565,0,0,0-1.071-1.041,26.423,26.423,0,0,0-5.4-1.026c-.315,0-.614.067-.614.142a15.366,15.366,0,0,0,2.172,1.535c.929.554,3.071,1.977,3.071,2.045a39.193,39.193,0,0,1-3.969-2.382c-.472-.322-1.161-.786-1.52-1.034C19.667-763.046,19.487-763.061,19.038-762.619Zm42.016,0c.022.052.037.015.037-.09s-.015-.142-.037-.1A.4.4,0,0,0,61.054-762.619Zm3.88.891c.255.509.989,1.94,1.64,3.176s1.505,2.876,1.91,3.647c.674,1.3.951,1.7.831,1.221-.1-.375-4.748-9.062-4.816-8.995A6.531,6.531,0,0,0,64.934-761.728Zm-35.1-.906a.211.211,0,0,0,.157.075c.06,0,.09-.037.067-.075a.188.188,0,0,0-.157-.075C29.845-762.709,29.815-762.679,29.838-762.634Zm26.139.067a.566.566,0,0,0,.262.12.928.928,0,0,1,.6.652.991.991,0,0,1-.3.449l-.307.285.187.075a9.753,9.753,0,0,0,2.1.479c.622,0,.944-.187,1.693-1,.7-.764.876-1.041.322-.517-1.153,1.094-1.588,1.3-2.561,1.243-1-.06-1.1-.142-.652-.577.479-.464.315-.734-.659-1.064C55.991-762.649,55.909-762.671,55.976-762.567Zm-13.818.232a1.554,1.554,0,0,1-.472.374c-.592.375-.472.382.2.015.539-.292.7-.464.427-.464C42.225-762.409,42.158-762.372,42.158-762.334Zm23.794.277c.374.906,3.318,6.643,3.37,6.583a5.087,5.087,0,0,0-.584-1.715c-.749-1.483-2.794-5.145-2.876-5.145A.724.724,0,0,0,65.952-762.057Zm-14.844.359c.337.142.607.217.539.142A1.614,1.614,0,0,0,51-761.8C50.936-761.8,50.981-761.758,51.108-761.7Zm1.468.225a14.374,14.374,0,0,0-2.075,1.3,2.327,2.327,0,0,0,1.153-.285,9.255,9.255,0,0,0,1.663-1.176C53.317-761.72,52.92-761.63,52.576-761.473Zm-7.549.307c-.045.127.981.577,1.168.517.225-.067.15-.135-.479-.4C45.184-761.278,45.071-761.3,45.026-761.166Zm8.044.3c-.157.1-.277.21-.255.225.06.06.562-.187.6-.307C53.482-761.106,53.392-761.091,53.07-760.866Zm1.528.464c.307.15.914.442,1.333.644a3.094,3.094,0,0,1,.816.479c.052.15-.577.734-1.49,1.378-.367.262-.637.479-.592.494a9.742,9.742,0,0,0,3-2.007,12.468,12.468,0,0,0-2.809-1.086C54.014-760.747,53.939-760.717,54.6-760.4Zm-10.995.374c-.472.389-.659.6-.607.652a5.9,5.9,0,0,0,.846-.135c.794-.165.824-.172.8-.352-.022-.2-.337-.524-.5-.524A2.062,2.062,0,0,0,43.6-760.028Zm9.167.067a1.511,1.511,0,0,1-.786.33,4.582,4.582,0,0,0-1.513.532c0,.03.1.112.24.18a3.079,3.079,0,0,0,1.251.135l1,.008.1-.412a2.614,2.614,0,0,0,.135-1.049A3.2,3.2,0,0,0,52.771-759.96Zm-4.4.022a41.3,41.3,0,0,0-4.793,3c0,.18,1.618-.727,3.82-2.149C49.258-760.29,49.505-760.507,48.374-759.938Zm-35.823-.255c-.06.06.022.255.1.255.037,0,.067-.067.067-.15C12.724-760.23,12.642-760.282,12.552-760.192Zm30.827,1.116c-.337.1-.614.292-.539.367a15.23,15.23,0,0,0,2-.442A3.961,3.961,0,0,0,43.379-759.076Zm4.771.165a.508.508,0,0,0,.112.2.593.593,0,0,1,.112.292c0,.075.03.112.075.09.112-.067.09-.389-.045-.517S48.15-759,48.15-758.912Zm-27.786.1a.075.075,0,0,0,.075.075.081.081,0,0,0,.075-.075.075.075,0,0,0-.075-.075A.071.071,0,0,0,20.363-758.814Zm.472.27a.152.152,0,0,0,.142.007c.06-.022.037-.045-.045-.045S20.805-758.567,20.835-758.545Zm28.752.12c.052.142.472.165.584.03.082-.1.052-.12-.262-.12C49.662-758.515,49.573-758.485,49.588-758.425Zm-11.841.727a.77.77,0,0,0-.157.389,4.874,4.874,0,0,1-.12.479c-.052.135-.045.135.067.052a3.231,3.231,0,0,0,.577-.9C38.114-757.781,37.9-757.8,37.747-757.7Zm-17.982-.037a1.5,1.5,0,0,0,.3.187c.165.082.3.12.3.082s-.09-.12-.21-.18C19.959-757.758,19.764-757.8,19.764-757.736Zm29.486.382c-.112.157-.12.232-.052.487.045.165.112.3.15.3a2.218,2.218,0,0,0,.225-.861C49.573-757.6,49.4-757.556,49.25-757.354Zm-1.49-.03c-.839.18-1.633.734-1.633,1.146,0,.262.09.644.15.644.03,0,.09-.135.142-.3a.8.8,0,0,1,.292-.427,3.57,3.57,0,0,0,.412-.3c.27-.217.3-.217.547.015a.984.984,0,0,0,.247.187.553.553,0,0,0,.382-.4.592.592,0,0,1,.112-.307c.082-.1.09-.172.03-.247C48.337-757.489,48.269-757.489,47.76-757.384Zm-2.232.352a.584.584,0,0,0,.1.2c.112.15.232.112.352-.12.075-.127.052-.142-.187-.142C45.648-757.092,45.528-757.062,45.528-757.032Zm5.325.33a6.27,6.27,0,0,0-.232,1.64c0,.449.022.524.172.629.262.165.607.217.7.1a3.069,3.069,0,0,0,.322-1.183c0-.547-.494-1.5-.779-1.5C50.981-757.017,50.9-756.875,50.853-756.7Zm-6.224,0a1.569,1.569,0,0,0-.225.374,2.1,2.1,0,0,0,.921.015,1.936,1.936,0,0,0-.434-.7A1.637,1.637,0,0,0,44.629-756.7Zm-23.315,1.086a1.029,1.029,0,0,1,.359.6c.06.367.135.389.554.18l.277-.15.374.285c.33.255.367.307.367.577,0,.509.24.659.771.472.225-.075.255-.06.577.262.262.27.337.4.337.592,0,.2.045.27.322.419.172.1.764.479,1.318.846l1,.659h.517a1.563,1.563,0,0,0,.547-.06c.082-.142-.18-.449-.659-.771a1.728,1.728,0,0,1-.749-.779l-.232-.434-1.2-.629c-2.659-1.4-4.7-2.427-4.741-2.389C21.03-755.916,21.15-755.766,21.314-755.616Zm22.626.157c-.06.06-.015.142.165.315a1.027,1.027,0,0,0,.307.225c.037,0,.142-.12.232-.262s.232-.262.3-.262a.241.241,0,0,0,.18-.082C45.191-755.646,44.053-755.571,43.94-755.459Zm1.475.165c-.022.037-.007.075.03.075a.082.082,0,0,0,.082-.075c0-.045-.015-.075-.03-.075S45.438-755.339,45.416-755.294Zm7.385,1.273c-.067.195-.052.24.09.33.2.127.5.225.5.157a2.315,2.315,0,0,0-.449-.712C52.913-754.246,52.845-754.141,52.8-754.021Zm23.877.225a.329.329,0,0,0-.142.255,14.761,14.761,0,0,0,.674,2.172c.037.037.1-.067.142-.225a10.792,10.792,0,0,0,.382-1.88v-.315l-.4-.03c-.21-.015-.419-.03-.449-.037A.5.5,0,0,0,76.677-753.8Zm-45.177.09c-.022.1-.067.412-.1.7-.037.4-.022.547.045.592.127.075.449-.285.449-.494a.852.852,0,0,1,.127-.344c.127-.187.12-.195-.112-.4C31.62-753.916,31.553-753.924,31.5-753.706Zm46.742.037a1.744,1.744,0,0,0-.195.285,25.35,25.35,0,0,0-.614,2.606c0,.247.315,1.026.389.981.045-.03.427-.764.854-1.633.726-1.475.936-2.007.831-2.12a4.413,4.413,0,0,0-1-.24A.388.388,0,0,0,78.243-753.669Zm-3.093.045c-.4.082-.449.112-.472.3a13,13,0,0,0,.929,2.314c.517,1.168.959,2.135.974,2.149.06.067.112-.075.345-.966l.24-.914-.367-1.1c-.195-.6-.442-1.273-.547-1.49C76.041-753.774,75.973-753.8,75.149-753.624Zm4.771.389a22.761,22.761,0,0,0-1.932,3.737,1.883,1.883,0,0,0,.337,1.236,1.461,1.461,0,0,0,.367.1,5.571,5.571,0,0,1,.734.247c.337.135.517.172.569.12.1-.1,1.483-4.711,1.483-4.958,0-.21-.112-.3-.374-.3-.09,0-.142.075-.172.27-.06.337-.172.479-.4.479s-.277-.1-.142-.419c.15-.359.142-.532-.022-.622C80.19-753.452,80.167-753.444,79.92-753.235Zm-6.246.037c-.629.24-.607.18-.4,1.019a14.333,14.333,0,0,0,1.393,3.138c.667,1.228.569,1.146,1.2.944a1.427,1.427,0,0,0,.562-.27,8.459,8.459,0,0,0-.517-1.438c-.951-2.262-1.588-3.543-1.775-3.543A3.108,3.108,0,0,0,73.674-753.2Zm-39.043.3c0,.2.165.292.232.12s-.022-.367-.142-.322C34.676-753.085,34.631-752.995,34.631-752.9Zm8.351-.12c0,.022.03.06.075.082s.075.008.075-.03a.082.082,0,0,0-.075-.082C43.012-753.047,42.982-753.032,42.982-753.017ZM81.5-751.7a34.185,34.185,0,0,0-1.056,3.647c.015.082.262-.06.914-.524,1-.719.906-.577,1.513-2.322.3-.869.307-1.026.082-1.228a2.639,2.639,0,0,0-1.026-.532C81.852-752.643,81.7-752.291,81.5-751.7Zm-48.779-.607c-.09.172-.082.172.734.345.786.165.974.15,1.078-.075.157-.345,0-.412-.921-.412C32.886-752.448,32.8-752.433,32.721-752.306Zm38.339,1.932a65.742,65.742,0,0,0,3.617,6.658c.1.06-.06-.232-2.621-5.078-.974-1.842-1.783-3.333-1.8-3.318S70.6-751.31,71.06-750.374ZM85.065-751.5c.2.24.427.487.494.547a7.658,7.658,0,0,1,1.318,1.6c.33.487.674,1.049.771,1.236a16.816,16.816,0,0,1,.944,2.659,8.6,8.6,0,0,0,.262.869c.03.022.03-.037.007-.142s-.075-.389-.12-.637a12.27,12.27,0,0,0-3.31-5.939C84.728-752.014,84.5-752.134,85.065-751.5Zm-40.586-.277c0,.037.045.075.1.075a.211.211,0,0,0,.157-.075c.022-.045-.022-.075-.1-.075S44.48-751.819,44.48-751.774Zm24.491.652c0,.06.067,0,.374-.337l.337-.352-.359.337A3.337,3.337,0,0,0,68.97-751.123Zm-55.093-.487a1.188,1.188,0,0,0-.157.577l-.045.464.891-.022.891-.022-.022-.21a1.832,1.832,0,0,0-.359-.839A1.459,1.459,0,0,0,13.877-751.609Zm69.331.532a6.737,6.737,0,0,0-.584,1.528,5.811,5.811,0,0,0,1.775-1.393,2.481,2.481,0,0,0-.839-.756A2.779,2.779,0,0,0,83.208-751.078ZM15.6-751.534c.022.1.06.33.082.524l.045.359h.966v-.285c0-.547-.217-.741-.846-.756C15.592-751.7,15.57-751.684,15.6-751.534Zm-2.8-.008c-.434.09-.524.21-.524.7v.345h1.1l.052-.307c.06-.389-.015-.816-.15-.816A4.2,4.2,0,0,0,12.8-751.542Zm-3.033.067c-.022.037-.007.075.03.075a.082.082,0,0,0,.082-.075c0-.045-.015-.075-.03-.075S9.788-751.52,9.766-751.475Zm7.235.307c-.157.464-.127.517.315.517.7,0,1-.442.427-.644C17.278-751.46,17.09-751.43,17-751.167Zm9.28-.09c0,.09.517.412.569.359.022-.022-.09-.127-.247-.232C26.288-751.347,26.28-751.347,26.28-751.257Zm-17.271.2a8.255,8.255,0,0,0-1.88,1.558,9.106,9.106,0,0,0-2.12,3.385c0,.375.247.142.764-.711a10.988,10.988,0,0,1,1.985-2.561,13.612,13.612,0,0,1,1.768-1.445c.277-.2.285-.217.157-.352a.471.471,0,0,0-.18-.142A3.858,3.858,0,0,0,9.009-751.055Zm10.628.127a7.485,7.485,0,0,0,1.326,1.026c.09,0,.157-.225.112-.382a2.878,2.878,0,0,0-.652-.547c-.532-.367-.629-.4-.719-.315A.233.233,0,0,0,19.637-750.928Zm-8.433-.09c-.292.157-.33.247-.172.457.1.142.315.165.712.09.255-.052.3-.217.157-.592C11.818-751.28,11.728-751.272,11.2-751.018Zm30.834.2c.157.037.794-.195.794-.285,0-.037-.21.008-.472.1C42.075-750.905,41.948-750.83,42.038-750.815ZM70-750.965c-.12.127-.112.15.082.322.412.375.539.464.584.419a2.364,2.364,0,0,0-.487-.876A.429.429,0,0,0,70-750.965Zm-38.346.449c-.12.195-.292.449-.382.562l-.172.217-.315-.165c-.337-.172-.449-.142-.614.172a.193.193,0,0,0,.037.27c.1.112.18.127.442.075.172-.037.854-.135,1.513-.225s1.221-.172,1.251-.195a.969.969,0,0,0-.037-.749,8,8,0,0,0-1.363-.315C31.9-750.868,31.792-750.763,31.65-750.516ZM18.341-750.8c0,.037.127.075.277.075.21,0,.255-.023.172-.075C18.641-750.9,18.341-750.9,18.341-750.8Zm11.309.292a.242.242,0,0,0,.067.187c.09.06.255-.157.195-.255A.139.139,0,0,0,29.65-750.508Zm54.254.427c-1.423.959-1.528,1.056-1.753,1.655a2.086,2.086,0,0,0-.172.577,7.76,7.76,0,0,0,1.932-.771c1.58-.712,1.857-.876,1.768-1.049a3.028,3.028,0,0,0-.906-.906A4.434,4.434,0,0,0,83.9-750.082Zm-73.877-.344a1.161,1.161,0,0,0-.337.232c-.082.12.352.532,1.236,1.183.936.689,1.2.854,1.251.809a7.471,7.471,0,0,0-1.386-2.1C10.477-750.621,10.425-750.628,10.028-750.426Zm58.98.5c-.389.472-.4.517-.285.614.075.052.749.4,1.505.771,1.723.846,1.827.816,1.228-.352a2.271,2.271,0,0,0-1.1-1.236C69.607-750.546,69.51-750.531,69.008-749.924Zm8.021.749c-.232.906-.225.846-.052.846.1,0,.217-.157.4-.509.277-.539.277-.487.007-1.213C77.321-750.231,77.246-750.037,77.029-749.175Zm-65.376-.352a3.444,3.444,0,0,0,.3.434l.165.2.007-.247c0-.255-.292-.614-.5-.614C11.541-749.752,11.541-749.707,11.653-749.527Zm-2.666-.1a.548.548,0,0,0,.045.419c.142.359.09.412-.195.2-.434-.307-.674-.037-.412.464a33.7,33.7,0,0,0,2.1,3.108c.12.045.449-.277,1.273-1.243.457-.532.539-.771.389-1.049a17.8,17.8,0,0,0-2.966-2.03A.319.319,0,0,0,8.987-749.625Zm3.415.711a1.728,1.728,0,0,0,.472,1.146c.127.112.172.127.225.045a6.227,6.227,0,0,0,.187-1.58,1.03,1.03,0,0,0-.487-.075h-.434Zm1.116-.322a3.91,3.91,0,0,0-.09.719l-.052.659.18-.045a4.359,4.359,0,0,0,.487-.157,4.376,4.376,0,0,1,.9-.157c.322-.022.7-.06.839-.082.24-.037.24-.045.195-.352-.075-.472-.15-.562-.464-.6A9.7,9.7,0,0,0,13.518-749.235Zm2.666.315c.03.232.18.262.292.06.075-.142.067-.187-.052-.27C16.259-749.25,16.147-749.16,16.184-748.921Zm68.949,0c-.217.082-1.049.442-1.85.8l-1.453.652-.18.4a1.2,1.2,0,0,0-.135.517,8.751,8.751,0,0,0,.981,1.416,1.817,1.817,0,0,0,.682-.322c1.176-.719,3.617-2.367,3.617-2.434a3.945,3.945,0,0,0-.547-1.026C86.054-749.123,85.665-749.13,85.133-748.921Zm-17.151.442c-.4.674-.419.786-.165,1.064.232.24,1.55,1.318,1.872,1.535.195.127.2.12.412-.135a2.744,2.744,0,0,0,.345-.569c.075-.18.172-.322.225-.322a2.11,2.11,0,0,0,.7-.711,13.257,13.257,0,0,0-2.951-1.363C68.334-748.973,68.162-748.771,67.982-748.479Zm-51.154-.4c-.285.255-.112.547.322.547.569,0,.667-.165.285-.479C17.165-749.033,17.023-749.048,16.828-748.876Zm60.65.374c-.052.15-.03.172.172.172s.232-.03.232-.157a.819.819,0,0,0-.082-.307c-.075-.142-.082-.142-.18-.007A1.377,1.377,0,0,0,77.479-748.5Zm-46.742-.2c-.022.037-.007.075.03.075a.082.082,0,0,0,.082-.075c0-.045-.015-.075-.03-.075S30.759-748.748,30.736-748.7Zm50.412.607a3.365,3.365,0,0,0-.719.622c0,.052.075.127.165.172.135.06.262.03.629-.15.412-.2.464-.255.584-.607.075-.21.157-.427.172-.479C82.055-748.726,81.852-748.621,81.148-748.1Zm-30.018-.292a4,4,0,0,0-.217.584.624.624,0,0,1-.4.479.908.908,0,0,0-.464.524,5,5,0,0,0-.225.607l-.052.225.285-.262a9.052,9.052,0,0,0,1.326-1.693c.165-.33.142-.7-.045-.7C51.288-748.629,51.19-748.516,51.13-748.389Zm-29.569-.165a.082.082,0,0,0,.082.075c.037,0,.052-.037.03-.075s-.06-.075-.082-.075S21.562-748.6,21.562-748.554Zm-13.743.06a1.424,1.424,0,0,0-.487.741,9.115,9.115,0,0,0,2.292,2.314c.682.33.7.24.15-.629a18.059,18.059,0,0,0-1.8-2.487A.314.314,0,0,0,7.818-748.494ZM29.426-748c0,.24.12.315.217.135.052-.1.052-.165-.007-.225C29.493-748.232,29.426-748.194,29.426-748Zm48.382.142c0,.127.285.4.345.33s-.172-.427-.27-.427C77.838-747.954,77.808-747.91,77.808-747.857Zm-1.648.045c0,.09.15.187.2.135s-.045-.2-.135-.2A.067.067,0,0,0,76.16-747.812Zm-54.621.434c-.487.442-.614.607-.547.674a6.071,6.071,0,0,0,1.588-.359c.082-.067.082-.112-.007-.292-.142-.27-.322-.449-.457-.449A2.348,2.348,0,0,0,21.539-747.378Zm-.944-.382c-.2.045-.285.135-.532.584a3.475,3.475,0,0,0-.3.622c0,.06.1.1.232.1.195,0,.352-.112.869-.614s.607-.629.494-.674A1.506,1.506,0,0,0,20.6-747.76Zm7.707.18a.075.075,0,0,0,.075.075.081.081,0,0,0,.075-.075.075.075,0,0,0-.075-.075A.071.071,0,0,0,28.3-747.58Zm51.034.217c.06.1.27.112.27.022a.3.3,0,0,0-.09-.15C79.411-747.595,79.261-747.49,79.336-747.363Zm6.224.7a13.564,13.564,0,0,0-2.8,1.932,8.292,8.292,0,0,0,1.153.142l1.049.09.6-.307a7.037,7.037,0,0,0,1.783-1.206c.157-.217.135-.359-.18-1.1l-.135-.315-.285.112C86.586-747.25,86.054-746.958,85.56-746.666Zm-14.148-.307a2.018,2.018,0,0,0-.419.562,2.731,2.731,0,0,0,.285.614c.157.277.33.614.382.741.18.442.532.315.846-.307a4.363,4.363,0,0,1,.3-.509l.142-.21-.277-.524c-.27-.517-.547-.824-.741-.824A1.987,1.987,0,0,0,71.412-746.973Zm-51.985.03c-.307.427-.4.637-.277.637a2.155,2.155,0,0,0,.689-1.011C19.839-747.438,19.689-747.31,19.427-746.943Zm-12.815.21c-.165.359-.2.33.981.727.929.307,1.086.345,1.086.232A7.554,7.554,0,0,0,7.459-747l-.449-.374-.135.18A2.3,2.3,0,0,0,6.612-746.734Zm74.536-.427c-.15.06-.157.21-.015.322.082.075.127.052.225-.082a.655.655,0,0,0,.12-.225C81.478-747.221,81.313-747.221,81.148-747.161Zm-14.043.592a1.593,1.593,0,0,0-.135.6c.06.135.412.315,1.5.741.959.382,1,.382,1.176-.03.12-.285.1-.307-.794-.974-1-.749-1.386-.981-1.49-.9A2.433,2.433,0,0,0,67.106-746.569Zm-26.573-.285c.022.075.037.03.037-.09s-.015-.18-.037-.135A.566.566,0,0,0,40.533-746.854Zm39.073-.052a.075.075,0,0,0,.075.075.081.081,0,0,0,.075-.075.075.075,0,0,0-.075-.075A.071.071,0,0,0,79.606-746.906Zm-2.052.24c.075.262.255.584.315.584a1.988,1.988,0,0,0,.614-.524,1.707,1.707,0,0,0-.809-.217C77.524-746.831,77.509-746.809,77.553-746.666Zm3.213.711c.03.15.075.232.127.2a1.461,1.461,0,0,0-.067-.876C80.744-746.749,80.707-746.277,80.766-745.955Zm-3.827-.539a.353.353,0,0,0,.052.307c.1.135.517.359.562.307a1.256,1.256,0,0,0-.127-.412C77.246-746.726,77.022-746.816,76.939-746.494Zm-55.655.008c-.734.18-1.258.464-1.116.607a20.659,20.659,0,0,0,2.659-.517c.15-.052.157-.082.075-.18C22.782-746.726,22.086-746.689,21.285-746.487Zm57.857.262c-.112.06-.135.127-.1.277a.937.937,0,0,0,.135.3c.067.082.1.082.18-.03.142-.195.12-.629-.03-.629A.913.913,0,0,0,79.141-746.224Zm-59.512.1c-.195.052-.217.172-.045.24.075.022.195-.037.315-.165C20.116-746.262,20.116-746.262,19.629-746.12Zm50.719.427c-.1.195-.1.21.232.487.449.374.8.562.891.472s-.127-.637-.449-1.071c-.262-.359-.27-.359-.419-.225A1.474,1.474,0,0,0,70.349-745.693Zm-56.936-.255c-.03.09.337.21.412.135.06-.06-.21-.27-.307-.247A.2.2,0,0,0,13.413-745.947Zm64.859.09c-.277.172-.322.375-.075.375a.992.992,0,0,1,.412.15c.315.187.374.082.21-.345C78.677-746.052,78.624-746.067,78.272-745.857Zm-72.162.33c-.225.614-.255.6,1.393.547,1.438-.052,1.775-.09,1.775-.21a6.028,6.028,0,0,0-2.734-.719C6.26-745.895,6.246-745.88,6.111-745.528Zm32.924-.135c-.045.127.157.18.472.127.255-.045.27-.052.135-.15C39.477-745.8,39.072-745.79,39.035-745.663Zm5.857.187a3.8,3.8,0,0,0-.9.157c-.045.045.045.06.262.03.187-.022.637-.06,1.011-.082s.734-.067.809-.082c.2-.06.06-.195-.157-.15C45.805-745.58,45.341-745.528,44.892-745.475Zm41.949.2c-.809.382-1.281.682-1.191.771a7.189,7.189,0,0,0,1.932.112l.277-.052-.052-.464c-.045-.457-.135-.652-.277-.652A4.876,4.876,0,0,0,86.841-745.273Zm-5.213.27c.007.285.015.3.112.165a.806.806,0,0,0,.112-.4c0-.225-.015-.247-.112-.165A.578.578,0,0,0,81.628-745Zm-14.882-.18a2.164,2.164,0,0,0-.09.614l-.007.359h.464a8.862,8.862,0,0,0,2.112-.3c.045-.045-.082-.142-.367-.27a10.09,10.09,0,0,0-1.91-.682C66.888-745.453,66.8-745.326,66.746-745.183Zm10.718-.157c.06.09.345.157.345.082s-.135-.135-.285-.142C77.471-745.408,77.441-745.378,77.464-745.341Zm-37.822.307a1.029,1.029,0,0,1-.4-.112c-.2-.1-.307-.082-.307.052a7.273,7.273,0,0,0,1.835.809,10.854,10.854,0,0,1,1.288.517c.637.322.771.307.771-.052v-.277l-.809-.315c-.442-.172-.981-.367-1.206-.434a2.226,2.226,0,0,1-.637-.345l-.232-.21-.06.187A.234.234,0,0,1,39.641-745.034Zm33.373-.03-.187.1.217-.015a.353.353,0,0,0,.255-.12C73.337-745.213,73.247-745.206,73.015-745.064Zm-3.078.082c-.09.247.06.4.412.4.419,0,.457-.1.15-.367C70.146-745.236,70.041-745.243,69.937-744.981Zm10.381.022c-.022.037.007.075.067.075s.12-.037.12-.075a.069.069,0,0,0-.067-.075A.142.142,0,0,0,80.317-744.959Zm-67.219,0c0,.1.15.1.3,0,.09-.06.067-.075-.1-.075C13.188-745.034,13.1-745,13.1-744.959Zm-6.434.307c-.929.112-1.176.4-.562.667.367.157.382.3.03.3-.442,0-.6.225-.322.464a17.262,17.262,0,0,0,3.483,1.116,2.225,2.225,0,0,0,.135-.569,8.954,8.954,0,0,1,.307-1.183c.225-.644.225-.667.09-.816s-.187-.15-1.371-.1C7.773-744.749,6.972-744.689,6.665-744.652Zm59.145.9a12.912,12.912,0,0,0,.741,5.16,9.286,9.286,0,0,0,3.984,5.018c.734.434.9.472,1.438.292a1.606,1.606,0,0,1,.569-.112c.067.03.2-.052.33-.187a10.768,10.768,0,0,0,1.685-3.1c-.075-.2-.307-.015-1.917,1.588-.839.831-1.535,1.52-1.55,1.52a1.159,1.159,0,0,1-.022-.337c0-.292.022-.345.225-.449a15.313,15.313,0,0,0,2.149-1.865c1.086-.989,1.146-1.064,1.146-1.326,0-.292-.2-.524-.9-1-.262-.18-.3-.187-.464-.09a1.533,1.533,0,0,1-.419.165c-.225.045-.247.03-.322-.18-.157-.457-.277-.344-1.341,1.378-.382.614-.809,1.281-.951,1.483-.33.449-.3.622.195.989a1.413,1.413,0,0,1,.419.412c.045.15-.075.449-.18.449a5.289,5.289,0,0,1-1.333-1.108,11.078,11.078,0,0,1-2-2.824c-.464-.936-.547-1.2-.367-1.131.1.037.112,0,.067-.27-.052-.344-.157-.509-.315-.509s-.195-.135-.067-.367c.15-.3.15-.307-.15-.7-.33-.427-.4-.921-.412-2.6C66.05-744.771,65.96-744.884,65.81-743.753Zm-32.3-.607c-.022.03.1.022.262-.015s.277-.1.262-.142C33.987-744.584,33.567-744.457,33.507-744.359Zm-5.3,0c-.022.12-.007.225.03.225s.06-.045.06-.1a.854.854,0,0,1,.045-.225c.022-.067.015-.12-.03-.12S28.227-744.487,28.212-744.359Zm51.588-.082a1.776,1.776,0,0,0,.112.839c.09.135.262-.082.382-.479.075-.24.067-.3-.022-.359C80.137-744.524,79.853-744.532,79.8-744.442Zm2.951.195c0,.217.217.382.607.449a.937.937,0,0,0,.659-.142c.21-.112.382-.225.382-.262a1.406,1.406,0,0,0-.584-.12c-.315-.023-.629-.06-.689-.067C82.819-744.457,82.751-744.434,82.751-744.247ZM71.667-744.4c0,.022.03.06.075.082s.075.007.075-.03a.082.082,0,0,0-.075-.082C71.7-744.434,71.667-744.419,71.667-744.4Zm-.749.037a1.6,1.6,0,0,0,.652.307c.09,0-.075-.135-.315-.255S70.918-744.464,70.918-744.367Zm9.624.315a.543.543,0,0,0-.09.27.985.985,0,0,0,.352-.165c.247-.157.3-.217.217-.27C80.826-744.337,80.662-744.285,80.542-744.052Zm-10.807.359-.022.554.3-.052a5.729,5.729,0,0,0,1.505-.487,3.927,3.927,0,0,0-1.573-.584C69.764-744.247,69.757-744.225,69.734-743.693Zm14.762-.292c-.457.262-.524.345-.345.434a30.46,30.46,0,0,0,3.475.936l.33.015.022-.337a3.128,3.128,0,0,0-.022-.652c-.045-.292-.067-.322-.345-.4a13.855,13.855,0,0,0-2.2-.217A1.348,1.348,0,0,0,84.5-743.985Zm-17.136.06c-.816.157-.891.247-.831.974.045.569.075.614.33.607a15.133,15.133,0,0,0,2.427-.689c-.007-.03-.015-.292-.015-.584v-.539l-.622.052C68.311-744.075,67.735-743.992,67.36-743.925Zm-37.26-.06c0,.037.082.075.187.075s.187-.037.187-.075-.082-.075-.187-.075S30.1-744.03,30.1-743.985Zm13.676.277-.12.247H43.9a2.434,2.434,0,0,0,1.049-.427c.022-.03-.21-.06-.509-.06C43.9-743.948,43.888-743.948,43.776-743.708Zm-27.427-.082c-.6.12-.891.255-.562.255s1.535-.367,1.236-.375C16.971-743.91,16.671-743.858,16.349-743.79Zm65.766.232c-.187.285-.262.674-.1.577a1.963,1.963,0,0,0,.367-.764C82.377-743.9,82.317-743.85,82.115-743.558Zm-1.445.022a2.038,2.038,0,0,0-.464.359,2.622,2.622,0,0,0,.584.734c.277.217.569.037.659-.4.06-.292-.1-.989-.225-.989A2.314,2.314,0,0,0,80.669-743.536Zm-37.538-.112a.115.115,0,0,0,.112.112c.12,0,.15-.09.06-.172S43.132-743.768,43.132-743.648Zm39.74.15a.166.166,0,0,0,.285.045c.052-.082-.03-.157-.187-.157C82.879-743.611,82.849-743.573,82.871-743.5Zm-67.578.09c.067.067.142.1.172.082.075-.075-.045-.21-.18-.21C15.173-743.536,15.173-743.528,15.293-743.408Zm-.734.03c-.1.1.12.075.374-.045l.225-.1-.262.045A1.115,1.115,0,0,0,14.559-743.378Zm64.972-.052c0,.022.03.06.075.082s.075.007.075-.03a.082.082,0,0,0-.075-.082C79.561-743.461,79.531-743.446,79.531-743.431Zm3.632.225c-.232.18-.24.21-.292.9a5.076,5.076,0,0,1-.12.914c-.045.112-.06.217-.037.24a29.421,29.421,0,0,0,3.5.509c1.026.1,1.341.112,1.423.045a2.786,2.786,0,0,0,.255-1.318c-.06-.247-.442-.419-2.067-.906-.764-.232-1.468-.449-1.573-.487A1.276,1.276,0,0,0,83.163-743.206Zm-71-.1c-.022.037-.007.075.03.075a.082.082,0,0,0,.082-.075c0-.045-.015-.075-.03-.075S12.185-743.356,12.162-743.311Zm12.89.382c-.532.142-.24.127.494-.03a2.712,2.712,0,0,0,.734-.21A4.254,4.254,0,0,0,25.052-742.929Zm-12.245.03a1.26,1.26,0,0,0,.3,2.09l.255.142-.165-.18a4.324,4.324,0,0,1-.359-.547c-.195-.345-.195-.382-.09-.562a3.013,3.013,0,0,0,.2-.622c.082-.352.135-.442.292-.5.18-.067.187-.067.03-.075A.932.932,0,0,0,12.806-742.9Zm57.265.015-.21.1.172.307a1.477,1.477,0,0,0,.352.419c.157.1.18.1.247-.007a.238.238,0,0,1,.172-.127c.172,0,.2-.135.1-.434-.045-.15-.1-.322-.112-.374C70.76-743.116,70.408-743.056,70.071-742.884Zm-54.389.831a4.414,4.414,0,0,1,.165,1.019c-.03.075-.142.12-.33.127a2,2,0,0,0-.472.075c-.337.12.667,0,1.311-.157.33-.075.869-.2,1.2-.277s.524-.142.442-.157a6.239,6.239,0,0,0-1.041.172,3.1,3.1,0,0,1-.936.135,3.09,3.09,0,0,1-.135-.667c-.082-.584-.292-1.273-.367-1.2A4.918,4.918,0,0,0,15.682-742.053Zm-3.453-.756c.075.075.142-.037.075-.135-.045-.082-.06-.082-.09,0A.156.156,0,0,0,12.23-742.809Zm63.781.022c0,.322.659,1.348.861,1.348s.2-.2,0-.614C76.542-742.719,76.011-743.169,76.011-742.787Zm-45.3-.12c.015.015.577.12,1.251.232,1.206.2,1.588.2,1.588.015,0-.075-.112-.09-.434-.075a8.854,8.854,0,0,1-1.213-.075C31.073-742.922,30.654-742.959,30.706-742.907Zm-1.827.1c-.1.09.345.472.539.472a1.421,1.421,0,0,0,.779-.27c.007-.037-.225-.1-.509-.15C29.021-742.869,28.939-742.869,28.879-742.809Zm-19.151.7c0,.037.052.075.1.075.142,0,.494-.457.494-.644,0-.112-.067-.075-.3.172A1.377,1.377,0,0,0,9.728-742.113Zm-4.119-.2a1.385,1.385,0,0,0,.09.592,5.326,5.326,0,0,0,1.925.359c.771.082.779.082,1.2-.127.232-.112.419-.262.419-.322,0-.082-.255-.187-.861-.359-.779-.217-2.442-.6-2.681-.607C5.639-742.787,5.609-742.644,5.609-742.315Zm62.568-.09c-1.378.4-1.528.472-1.528.756a3.74,3.74,0,0,0,.322,1.311,8.528,8.528,0,0,0,2.472.09c1.363-.067,1.7-.112,1.7-.217a5.385,5.385,0,0,0-.607-.749,11.7,11.7,0,0,1-.861-1.094c-.142-.225-.307-.4-.359-.4S68.753-742.577,68.177-742.4ZM33.62-742.42c0,.082.217.135.786.2.547.06.494-.075-.075-.18C33.83-742.495,33.62-742.5,33.62-742.42Zm48.457.427c-.367.345-.449.479-.3.479a2.631,2.631,0,0,0,.756-.689C82.661-742.45,82.459-742.352,82.077-741.993Zm-41.455-.12a1.088,1.088,0,0,0,.786,0c.082-.052-.03-.075-.359-.075C40.75-742.187,40.593-742.158,40.623-742.113Zm31.456.225c-.06.1.337.1.487,0,.082-.052.045-.075-.165-.075C72.251-741.963,72.1-741.933,72.079-741.888Zm-58.2.127c.075.075.142-.037.075-.135-.045-.082-.06-.082-.09,0A.156.156,0,0,0,13.877-741.761Zm8.441-.015c-.022.03.052.127.165.217a3.53,3.53,0,0,0,1.138.554,1.506,1.506,0,0,0,.09-.479l.045-.427-.7.045A3.968,3.968,0,0,0,22.318-741.776Zm50.7-.007a1.05,1.05,0,0,0,.232.494c.09,0,.082-.1-.022-.337C73.157-741.776,73.015-741.888,73.015-741.783Zm.449.1a.577.577,0,0,0,.112.21c.1.142.1.142.112-.015a.328.328,0,0,0-.052-.2C73.569-741.761,73.464-741.753,73.464-741.678Zm-51.865.592a1.848,1.848,0,0,0-.337.562c0,.21.569.464.816.374a5.939,5.939,0,0,1,1.049-.255c.419-.052.217-.33-.592-.816a4.565,4.565,0,0,0-.539-.292A2.315,2.315,0,0,0,21.6-741.087Zm-12.59-.322c-.135.1-.135.112.06.157.232.06.359,0,.359-.157C9.429-741.543,9.2-741.543,9.009-741.409Zm70.641.4c-.015.12-.06.367-.082.562-.052.389-.022.412.554.457.232.015.292-.022.547-.359.374-.494.374-.689,0-.749-.15-.03-.33-.06-.389-.075s-.217-.022-.352-.03C79.725-741.214,79.688-741.184,79.651-741.012Zm-73.884.2c.06.457.1.569.24.569a10.378,10.378,0,0,0,1.768-.712c.1-.09.1-.112,0-.142a5.577,5.577,0,0,0-1.348-.1l-.719-.015Zm17.458,2.479a10.878,10.878,0,0,1-4.254,4.5c-.592.33-.682.449-.285.367a5.18,5.18,0,0,1,.517-.067,7.62,7.62,0,0,0,2.854-2.127,10.165,10.165,0,0,0,2.247-4.232c.1-.464.12-.614.045-.734a.739.739,0,0,1-.1-.307,3.192,3.192,0,0,0-.389.951C23.644-739.364,23.359-738.622,23.224-738.33Zm55.932-2.277c0,.157.03.292.067.292.067,0,.157-.524.1-.622C79.254-741.064,79.156-740.884,79.156-740.607ZM7.579-740.7a10.59,10.59,0,0,0-.981.554l-.479.315.037.352a1.436,1.436,0,0,0,.157.547c.127.195.127.195.345.06A25.665,25.665,0,0,0,8.792-740.7l.3-.307-.5.037A2.715,2.715,0,0,0,7.579-740.7Zm.861.622c-1.288,1.123-1.73,1.58-1.73,1.813a1.494,1.494,0,0,0,.592.914,1.336,1.336,0,0,0,.487-.045,15.6,15.6,0,0,0,2.839-1.4,2.453,2.453,0,0,0-.307-.562,8.089,8.089,0,0,1-.569-1.011c-.142-.307-.285-.547-.322-.532S8.942-740.517,8.44-740.076Zm74.124-.689a5.957,5.957,0,0,0,1.475,1.505,7.434,7.434,0,0,0,1.266.337c1.056.21,1.745.217,1.872.023a3.883,3.883,0,0,0,.337-1.183,15.382,15.382,0,0,0-2.958-.532C82.871-740.854,82.631-740.869,82.564-740.765Zm-.674.067a.091.091,0,0,0,.037.12c.037.022.075-.008.075-.067C82-740.779,81.957-740.8,81.89-740.7Zm-71.256.682c-.015.359.007.6.052.6.1,0,.165-.375.165-.921C10.852-741.034,10.672-740.765,10.634-740.016Zm61.512-.479c-.359.21-.419.292-.165.21.412-.12.667-.255.622-.33C72.535-740.72,72.521-740.712,72.146-740.495ZM13.48-740.57c-.015.015.1.03.277.03a.617.617,0,0,0,.352-.075C14.154-740.69,13.563-740.637,13.48-740.57Zm67.735.255c-.075.082-.1.15-.052.15.135,0,.464-.165.464-.24C81.628-740.525,81.351-740.465,81.216-740.315Zm-2.531-.037c-.007.037.045.082.112.1s.135-.022.135-.1C78.932-740.48,78.707-740.487,78.684-740.353Zm3.707.577a.922.922,0,0,0,.884.434c.165-.008.135-.06-.33-.5s-.524-.479-.614-.359S82.257-740.023,82.392-739.776Zm-5.932-.472c0,.1.21.247.3.195.15-.09.075-.262-.112-.262C76.542-740.315,76.46-740.285,76.46-740.248Zm-.562.165a2.944,2.944,0,0,0,.09,1.063c.052.09.24-.1.4-.4.142-.277.12-.4-.135-.7C76.1-740.285,75.958-740.278,75.9-740.083Zm-55.063.007c-.255.24-.21.277.165.15.307-.1.33-.12.21-.21C21.037-740.263,21.037-740.27,20.835-740.076ZM75.359-740c-.277.307-.285.487-.022.742.322.322.4.217.337-.412a1.157,1.157,0,0,0-.1-.494A.582.582,0,0,0,75.359-740Zm-1.565.517c.112.614.157.727.24.652a4.162,4.162,0,0,0-.2-1.161C73.7-740.353,73.674-740.105,73.794-739.484Zm-59.632-.554c.015.082.1.142.232.157.217.03.262-.045.112-.195S14.132-740.188,14.162-740.038Zm62.912.067c-.2.142-.217.33-.022.33.157,0,.4-.285.337-.389S77.261-740.105,77.074-739.971Zm-9.444.03a2.289,2.289,0,0,0-.517.112,3.344,3.344,0,0,0,.4,1.161c.052.045.247.03.539-.037a30.16,30.16,0,0,0,2.891-1.011.247.247,0,0,0,.015-.225l-.052-.172-1.4.052C68.738-740.031,67.892-739.978,67.63-739.941Zm11.107.1c-.052.135.165.644.27.644.15,0,.172-.24.052-.494S78.8-740.016,78.737-739.836Zm-63.916.045a.082.082,0,0,0,.082.075c.037,0,.052-.037.03-.075s-.06-.075-.082-.075S14.821-739.836,14.821-739.791Zm64.65.285c-.03.285.022.292.315.06.2-.165.2-.18.075-.262C79.628-739.843,79.493-739.776,79.471-739.506Zm-56.456-.18c-.112.09-.12.127-.052.2s.112.067.21-.007c.12-.1.157-.3.052-.3A.529.529,0,0,0,23.015-739.686Zm58.988,0c0,.022.03.06.075.082s.075.008.075-.03a.082.082,0,0,0-.075-.082C82.032-739.716,82-739.7,82-739.686Zm-4.636.225-.172.187.172.225c.21.262.33.285.442.09a.462.462,0,0,0-.037-.412C77.636-739.693,77.591-739.7,77.366-739.461Zm-6.179-.06a25.127,25.127,0,0,0-2.239,2.479l-.27.389.337.449a4.745,4.745,0,0,0,.412.5c.187.112.427-.165,1.371-1.52.816-1.176,1.019-1.52,1.019-1.723,0-.157-.045-.27-.112-.292a.227.227,0,0,1-.112-.187C71.592-739.566,71.42-739.611,71.187-739.521Zm-50.075.292c-1,.247-1.273.33-1.273.412a9.967,9.967,0,0,0,1.992.786c.7.18.914.015.4-.315-.389-.247-.532-.4-.5-.532.037-.195.315-.195.719.015.382.195.464.187.464-.03,0-.24-.6-.629-.861-.569C21.966-739.439,21.547-739.334,21.112-739.229Zm59.512-.12a1.064,1.064,0,0,0-.374.157c-.135.15.846.037.989-.1.112-.112.1-.12-.1-.12A3.632,3.632,0,0,0,80.624-739.349Zm-4.059.135c.052.052.195-.052.195-.142,0-.045-.045-.045-.112.015S76.55-739.229,76.565-739.214Zm4.524.584a6.551,6.551,0,0,0-.771.786,22.063,22.063,0,0,0,3.318,3.37,2.045,2.045,0,0,0,.936-.674c.24-.285.232-.345-.15-1.049-.33-.6-1.745-2.741-1.962-2.981C82.145-739.5,81.927-739.409,81.089-738.63Zm1.895-.2c.4.682,1.715,2.621,1.925,2.846.135.142.27.225.322.2a5.9,5.9,0,0,0,.741-1.011,8.4,8.4,0,0,0-1.431-1.565c-.637-.592-.719-.644-1.146-.719a1.939,1.939,0,0,0-.517-.06C82.849-739.117,82.894-738.982,82.983-738.832Zm-13.968.1c-1.371.517-1.333.487-1.071,1a2.665,2.665,0,0,0,.352.532c.135.12.157.112.4-.067a21.939,21.939,0,0,0,1.663-1.76l.15-.18-.24.045A13.1,13.1,0,0,0,69.015-738.735Zm7.774-.225c-.12.127-.12.165-.03.217.12.075.524.1.524.037a.951.951,0,0,0-.3-.412A.525.525,0,0,0,76.79-738.96Zm-64.59-.03c.007.12.217.337.3.307.045-.015.037-.082-.037-.195C12.342-739.034,12.2-739.1,12.2-738.99Zm72.274.157a12.041,12.041,0,0,0,1.483,1.43c.135.1.285.157.337.135a1.791,1.791,0,0,0,.345-.5c.2-.375.232-.479.15-.532a8.062,8.062,0,0,0-1.655-.479C84.436-738.907,84.474-738.9,84.474-738.832Zm-9.587.052a1.86,1.86,0,0,0,.374.749c.127.075.082-.165-.09-.524C75.007-738.892,74.887-738.99,74.887-738.78ZM8.964-737.716a10.03,10.03,0,0,0-1.228.7c-.165.187-.082.382.307.7l.337.27.7-.344c.959-.464,1.266-.756,1.543-1.453a3.44,3.44,0,0,0,.225-.652C10.852-738.63,10.335-738.42,8.964-737.716Zm10.508-.7c-.067.082-.052.2.067.517a1.057,1.057,0,0,0,.577.682c.637.4,1.2.607,1.393.517s.607-.659.539-.771a7.188,7.188,0,0,0-1.745-.824C19.539-738.555,19.584-738.548,19.472-738.413Zm60.418.135c.067.067.112.067.18,0s.052-.09-.09-.09S79.823-738.345,79.89-738.278Zm-67.241.008a.594.594,0,0,0,.1.24c.142.195.225.022.082-.172S12.649-738.413,12.649-738.271Zm-1.685.217c-.067.18-.142.367-.165.412-.067.172.172.1.5-.135l.315-.232-.172-.18C11.2-738.443,11.114-738.413,10.964-738.053Zm65.384.015c.21.277.547.532.614.464s-.12-.262-.457-.509C76.13-738.353,76.108-738.345,76.348-738.038Zm1.348.015c.172.127.24.075.112-.082-.052-.06-.127-.09-.172-.06S77.613-738.083,77.7-738.023Zm-58.86-.15c-.18.067-.142.165.1.292.322.165.382.15.292-.112C19.15-738.218,19.06-738.255,18.835-738.173Zm-.989.285a19.3,19.3,0,0,0,1.019,2.883c.082.172.195.307.247.307a1.929,1.929,0,0,0,.846-.7,4.034,4.034,0,0,0-.345-1.483c-.157-.419-.18-.442-.771-.771C18.206-738,17.914-738.068,17.847-737.889Zm-12.275-.03a.184.184,0,0,1-.037.187c-.12.15-.052.4.255.906a9.834,9.834,0,0,0,5.153,4.1c.749.24,1.146.322,1.078.2-.037-.052.03-.082.21-.082.374,0,.337-.112-.09-.27a13.113,13.113,0,0,1-3.378-1.618A13.369,13.369,0,0,1,5.811-737.7a.846.846,0,0,0-.225-.292C5.549-737.993,5.549-737.956,5.571-737.919Zm10.478.06a1.3,1.3,0,0,0-.33.674,25.312,25.312,0,0,0,1.49,2.824c.247.375.419.4.944.157.389-.18.412-.2.412-.457a17.194,17.194,0,0,0-1.011-3.108c-.075-.06-.18-.06-.389-.008a1.012,1.012,0,0,1-.629-.022C16.124-737.933,16.147-737.926,16.049-737.859Zm62.358.127c.052.067.112.1.127.082.052-.052-.052-.195-.142-.195C78.347-737.844,78.347-737.8,78.407-737.731Zm-66.829.936a10.4,10.4,0,0,0-.225,1.872l-.015.861.464.165c.734.262.726.27,1.475-1.625.352-.884.659-1.663.682-1.73.037-.1-.052-.135-.539-.217a4.873,4.873,0,0,1-.921-.225C11.833-737.963,11.818-737.948,11.578-736.8Zm68.17-.854a1.038,1.038,0,0,0-.09.584,2.87,2.87,0,0,0,.884,2.037c.914,1.191,1.251,1.528,1.52,1.528a3.386,3.386,0,0,0,1.153-.592,33.514,33.514,0,0,0-3.318-3.677A.309.309,0,0,0,79.748-737.649Zm-4.936.03c0,.037.015.075.03.075s.06-.037.082-.075.007-.075-.03-.075A.077.077,0,0,0,74.812-737.619Zm-63.676.142a2.083,2.083,0,0,0-.494.434,7.926,7.926,0,0,0-.7,1.738c-.112.442-.075.509.434.809.352.2.547.187.547-.037a1.442,1.442,0,0,1,.12-.427c.06-.15.21-.756.337-1.333s.232-1.138.255-1.236C11.69-737.754,11.556-737.739,11.136-737.477Zm4.359-.067c0,.037.015.075.03.075s.06-.037.082-.075.007-.075-.03-.075A.077.077,0,0,0,15.5-737.544Zm-1.019.172a3.3,3.3,0,0,0,.554,1.445,2.376,2.376,0,0,0,.359-1.191c-.075-.359-.15-.412-.532-.352A1.411,1.411,0,0,0,14.477-737.372Zm64.695.285c-.015.277.007.367.172.517l.187.172v-.255c0-.367-.142-.831-.247-.794C79.231-737.432,79.186-737.267,79.171-737.087Zm-4.029.307-.382.584-.052,1.513a14.74,14.74,0,0,0,.015,1.782c.075.33.3.442.914.472.464.015.472.015.539-.21a34.061,34.061,0,0,0-.359-4.643C75.726-737.507,75.524-737.357,75.142-736.78Zm-.247-.419c-.18.225-.2.359-.067.315s.4-.509.3-.509C75.082-737.394,74.977-737.3,74.895-737.2Zm1.191.367c0,.614.367,4.164.449,4.359.052.127.135.172.3.172.2,0,.247-.045.382-.352.157-.375.24-.367.345.052a.328.328,0,0,0,.539.225c.217-.112.345-.644.569-2.359.217-1.76.225-2.037.052-2.262-.12-.157-.195-.172-1.176-.195-.577-.007-1.138-.03-1.258-.037C76.093-737.244,76.086-737.237,76.086-736.833Zm-62.261.539a21.969,21.969,0,0,0-.906,2.4c-.052.225-.037.24.232.315.434.12.809.1.944-.052a5.23,5.23,0,0,0,.4-.727,2.156,2.156,0,0,0,.03-2.082,2.537,2.537,0,0,0-.307-.652A3.674,3.674,0,0,0,13.825-736.293Zm6.111-.464a3.678,3.678,0,0,0,.494,1.161,1.716,1.716,0,0,0,.345-.3c.255-.262.277-.307.18-.419a6,6,0,0,0-1.026-.7A.58.58,0,0,0,19.936-736.758Zm-10.133.12a4.534,4.534,0,0,0-1.123.929,1.894,1.894,0,0,0,.741.562c.09,0,.277-.352.562-1.041S10.245-736.907,9.8-736.638Zm5.475.547-.187.577.135.389c.075.217.255.637.4.929l.255.547h.367c.464,0,.749-.1.749-.285a12.063,12.063,0,0,0-1.445-2.764A1.708,1.708,0,0,0,15.278-736.091Zm63.631.719a21.871,21.871,0,0,0-.255,2.869c.03.082.12.1.442.045.217-.037.494-.1.622-.127l.225-.067-.015-.7a11.823,11.823,0,0,0-.337-2.457,2.28,2.28,0,0,0-.262-.449C79.074-736.593,79.051-736.533,78.909-735.372Zm6.224.569a13.415,13.415,0,0,1-3.258,2.172c-.487.225-1.146.539-1.468.689-.9.419-.719.524.4.21a10.826,10.826,0,0,0,4.059-2.164,7.673,7.673,0,0,0,1.408-1.633C86.271-735.717,85.979-735.529,85.133-734.8Zm-11.189-.03a4.744,4.744,0,0,0-.809,1.7,2.677,2.677,0,0,0,1.168.322,8.271,8.271,0,0,0,.142-2.711A3.06,3.06,0,0,0,73.944-734.833Zm6-.112a9.066,9.066,0,0,0,.382,1.88c.135.359.127.359.831.045.217-.1.4-.217.4-.277a12.114,12.114,0,0,0-1.633-2.15A2.148,2.148,0,0,0,79.943-734.945Zm-65.122.067a4.621,4.621,0,0,0-.27,1.356c.037.09.127.1.419.082a1.311,1.311,0,0,0,.427-.09,3.007,3.007,0,0,0-.434-1.543C14.926-735.072,14.858-734.983,14.821-734.878ZM13.4-728.736c0,.06.037.09.075.067a.091.091,0,0,0,.037-.12C13.443-728.894,13.4-728.871,13.4-728.736Z" transform="translate(3.753)" fill="none" stroke="#053361" stroke-width="1"/>
    <path id="Trazado_2" data-name="Trazado 2" d="M871.3-503.873c.307.2.6.494.6.6,0,.135-.307.12-.509-.022-.247-.172-.5-.7-.33-.7A.67.67,0,0,1,871.3-503.873Z" transform="translate(-841.188 -261.78)" fill="none" stroke="#053361" stroke-width="1"/>
    <path id="Trazado_3" data-name="Trazado 3" d="M853.622-498.728c.4.18.824.667.7.794-.112.112-.3.022-.6-.27C853.33-498.586,853.27-498.885,853.622-498.728Z" transform="translate(-822.316 -266.617)" fill="none" stroke="#053361" stroke-width="1"/>
    <path id="Trazado_4" data-name="Trazado 4" d="M882.6-495.9c.09.06.067.075-.1.075-.112,0-.2-.037-.2-.075C882.3-496,882.454-496,882.6-495.9Z" transform="translate(-852.795 -269.204)" fill="none" stroke="#053361" stroke-width="1"/>
    <path id="Trazado_5" data-name="Trazado 5" d="M1083.1-552.763c.4.037.569.082.622.172.12.217.449.337,2.322.846a19.7,19.7,0,0,1,1.917.577c.142.112.045.157-.966.419a11.972,11.972,0,0,0-1.49.494c-.569.247-.667.27-.876.187a2.858,2.858,0,0,0-1.55.3c-.21.082-.854.262-1.431.412a3.643,3.643,0,0,0-2.524,1.416,7.011,7.011,0,0,0-1.423,1.962,3.408,3.408,0,0,1-.846,1.071,16.485,16.485,0,0,0-1.2,1.393,30.136,30.136,0,0,0-1.768,2.936c-.135.322-.135.322.03.4a.808.808,0,0,1,.217.172,2.583,2.583,0,0,1,0,1.071,2.1,2.1,0,0,1-1.505.4c-.075-.045-.112-.225-.112-.584l-.007-.509.337-.172c.322-.165.337-.18.337-.509.007-.292.172-.674,1.108-2.524a12.973,12.973,0,0,0,1.1-2.427.908.908,0,0,1,.292-.577,17.106,17.106,0,0,0,1.4-2.232c.12-.255.12-.292.015-.412a1.871,1.871,0,0,1-.24-.434c-.157-.382-.217-.412-.764-.412-.345,0-.487-.03-.577-.135a.461.461,0,0,1,.06-.682c.3-.232.846-.315,2.621-.374,1.678-.067,1.962-.112,2.262-.4a.7.7,0,0,0,.052-.846c-.112-.172-.112-.195.127-.4l.24-.225-.195-.09c-.24-.1-.255-.187-.06-.292A11.786,11.786,0,0,1,1083.1-552.763Zm-1.812.577a.4.4,0,0,0,.187,0c.052-.022.015-.037-.09-.037S1081.239-552.209,1081.284-552.187Z" transform="translate(-1072.394 -216.611)" fill="none" stroke="#053361" stroke-width="1"/>
    <path id="Trazado_6" data-name="Trazado 6" d="M962.744-20.844c.067.045.112.1.09.135-.06.1-.412,0-.412-.112S962.557-20.956,962.744-20.844Z" transform="translate(-938.98 -708.679)" fill="none" stroke="#053361" stroke-width="1"/>
  </g>
</svg>
