<svg xmlns="http://www.w3.org/2000/svg" width="13.994" height="9.611" viewBox="0 0 13.994 9.611">
  <g id="icons8-motocicleta-64" transform="translate(-0.35 58.182)">
    <path id="Trazado_31" data-name="Trazado 31" d="M7.782-57.72c0,.174.348.348.848.435.587.087.869.261.956.565.087.348,0,.435-.456.435a5.344,5.344,0,0,0-2.7.826,1.242,1.242,0,0,0-.391.848c0,.478.087.5,1.348.5,1.587,0,1.478.37-.13.478-.978.065-1.087.13-1.282.717A3.559,3.559,0,0,1,5.7-52.2,7.537,7.537,0,0,1,4.087-53.96c0-.087.348-.152.761-.152.652,0,.761-.065.761-.522s-.13-.522-1.13-.652c-1.891-.217-2.369-.152-2.913.348a2.177,2.177,0,0,0-.522.652c0,.109.565.174,1.261.2l1.239.022-.891.2A3.447,3.447,0,0,0,1.13-53,1.961,1.961,0,0,0,.5-51.286,1.92,1.92,0,0,0,1.217-49.5a1.9,1.9,0,0,0,1.761.717,2.48,2.48,0,0,0,2.434-1.587c.152-.37.348-.478.956-.478,1.152,0,1.608-.326,2.261-1.7A21.54,21.54,0,0,1,9.673-54.5l.435-.7.217.7c.2.652.152.783-.456,1.435a2.042,2.042,0,0,0-.674,1.782A1.92,1.92,0,0,0,9.912-49.5a2.421,2.421,0,0,0,3.565,0,1.92,1.92,0,0,0,.717-1.782A1.961,1.961,0,0,0,13.564-53a3.027,3.027,0,0,0-1.5-.826c-.761-.152-.913-.283-1.152-1-.239-.674-.239-.8,0-.8.37,0,.587-.543.413-1-.087-.217-.283-.3-.609-.217-.348.087-.543,0-.717-.391C9.695-57.938,7.782-58.351,7.782-57.72ZM2.891-52.547c-.087.283-.2.761-.261,1.087-.109.565-.087.587,1.043.652l1.174.065-.587.587a1.608,1.608,0,0,1-2.456.065,1.6,1.6,0,0,1,0-2.391C2.5-53.2,3.108-53.221,2.891-52.547Zm10,.065a1.716,1.716,0,0,1-1.2,2.934,1.754,1.754,0,0,1-1.326-2.847l.435-.522.326.8a4.592,4.592,0,0,1,.348,1.043c0,.109.152.217.326.217.413,0,.413-.152,0-1.282-.283-.848-.283-.891.13-.891A1.679,1.679,0,0,1,12.89-52.482Zm-8.5.152c.5.7.435.826-.391.826-.739,0-.761,0-.543-.652C3.739-52.938,3.956-52.982,4.391-52.33Zm3.065-.043c-.609.261-.978.261-.978,0,0-.13.326-.217.717-.2C7.782-52.569,7.825-52.525,7.456-52.373Z" fill="none" stroke="#053361" stroke-width="0.3"/>
  </g>
</svg>
