<svg xmlns="http://www.w3.org/2000/svg" width="25.498" height="10.52" viewBox="0 0 25.498 10.52">
  <g id="sedan.ae25422c" transform="translate(-3.412 -6.24)">
    <path id="Trazado_2" data-name="Trazado 2" d="M28.06,14.4H25.58a.25.25,0,0,1,0-.5h2.34a4.6,4.6,0,0,0,.5-1.16l-.03-.14c-.08-.37-.27-1.37-.63-1.6a16.84,16.84,0,0,0-5.8-1.7.24.24,0,0,1-.1-.02L17.9,7.32l-.13-.04a16.28,16.28,0,0,0-4.76-.52,11.2,11.2,0,0,0-4.98.77l-.16.07c-.57.23-1.5.7-2.2,1.06a8.48,8.48,0,0,1-1,.48c-.17.04.227.493-.263.553v1.219c0,.068-.5.266-.547.313l-.094.672v.578c-.03.84-.1,1.064.172,1.094l2.012.342-.07.5-2.207-.576c-.48-.07-.155.238-.125-.922V11.9a.807.807,0,0,0,0-.516l.641-.578v-.687c0-.127-.376-.641-.25-.656l.641-.625c.07-.02.526-.29.906-.5l2.2-1.2.16-.06a11.71,11.71,0,0,1,5.17-.8,16.75,16.75,0,0,1,4.9.54l.1.03c.32.08,3.32,1.62,4.03,1.98a16.79,16.79,0,0,1,5.98,1.77,3.01,3.01,0,0,1,.85,1.92l.03.14a3.67,3.67,0,0,1-.63,1.62.25.25,0,0,1-.22.12Z" fill="#053361"/>
    <path id="Trazado_3" data-name="Trazado 3" d="M7.67,8.5c.95-.5,1.9-1.04,5.2-1.04a16,16,0,0,1,4.95.57c.2.05,1.67.8,2.78,1.36H6.1l1.56-.9Z" fill="#dedfe0"/>
    <g id="Grupo_1" data-name="Grupo 1">
      <path id="Trazado_4" data-name="Trazado 4" d="M20.6,9.64H6.1a.25.25,0,0,1-.12-.47c.04-.02,1.05-.63,1.58-.9l.1-.05c.92-.47,1.96-1,5.2-1a16.74,16.74,0,0,1,4.9.54l.1.03A26.591,26.591,0,0,1,20.7,9.16a.25.25,0,0,1-.11.48ZM7.03,9.14h12.5q-.879-.477-1.8-.87l-.13-.03a16.27,16.27,0,0,0-4.75-.53c-3.12,0-4.06.5-4.97.95l-.1.06-.76.42ZM7.67,8.49ZM4.141,9.82c.094.326.183-.269.109.107-.03.1.111-.117-.109-.107Zm23.5,2.24h-.25c-.28,0-.98-.93-.76-.96a4.05,4.05,0,0,1,.67-.05Z" fill="#053361"/>
      <path id="Trazado_5" data-name="Trazado 5" d="M14.47,12.62a.13.13,0,0,1-.13-.11q-.3-3-.87-5.97a.122.122,0,1,1,.24-.04c.01.03.7,3.7.88,6a.13.13,0,0,1-.11.13Zm-4.14-1.95H9.3a.13.13,0,0,1,0-.25h1.02a.13.13,0,0,1,0,.25Zm5.6,0H14.9a.13.13,0,0,1,0-.25h1.02a.13.13,0,1,1,0,.25Zm2.37-1h.74a.29.29,0,1,0-.01-.58H18.3Z" fill="#053361"/>
      <path id="Trazado_6" data-name="Trazado 6" d="M19.04,9.93H18.3a.25.25,0,0,1-.25-.25V9.1a.25.25,0,0,1,.25-.25h.74a.54.54,0,1,1,0,1.08Zm-.5-.5h.5V9.35h-.5Z" fill="#053361"/>
    </g>
    <g id="Grupo_2" data-name="Grupo 2">
      <ellipse id="Elipse_1" data-name="Elipse 1" cx="10.79" cy="0.57" rx="10.79" ry="0.57" transform="translate(4.93 15.62)" fill="#dedfe0"/>
      <circle id="Elipse_2" data-name="Elipse 2" cx="2.19" cy="2.19" r="2.19" transform="translate(5.87 11.56)" fill="#dedfe0"/>
    </g>
    <path id="Trazado_7" data-name="Trazado 7" d="M8.06,16.2a2.445,2.445,0,1,0,0-.01Zm0-4.4a1.95,1.95,0,1,1,0,.02Z" fill="#053361"/>
    <circle id="Elipse_3" data-name="Elipse 3" cx="1.25" cy="1.25" r="1.25" transform="translate(6.81 12.5)" fill="#fff"/>
    <path id="Trazado_8" data-name="Trazado 8" d="M8.06,15.13a1.38,1.38,0,1,1,.5-2.66.123.123,0,0,1-.09.23,1.1,1.1,0,0,0-.41-.08,1.13,1.13,0,1,0,.82.36.13.13,0,0,1,.18-.17,1.38,1.38,0,0,1-1,2.32Z" fill="#053361"/>
    <circle id="Elipse_4" data-name="Elipse 4" cx="2.19" cy="2.19" r="2.19" transform="translate(21.2 11.56)" fill="#dedfe0"/>
    <path id="Trazado_9" data-name="Trazado 9" d="M23.4,16.2a2.445,2.445,0,1,0,0-.01Zm0-4.4a1.945,1.945,0,1,1,0,.01Z" fill="#053361"/>
    <circle id="Elipse_5" data-name="Elipse 5" cx="1.25" cy="1.25" r="1.25" transform="translate(22.14 12.5)" fill="#fff"/>
    <path id="Trazado_10" data-name="Trazado 10" d="M10.568,14.427c-.139,0,0-.081,0-.219s.018-.312.156-.312l10.588,0a.251.251,0,0,1,.251.25Zm11.7-.227a.12.12,0,0,1-.121-.1,1.275,1.275,0,0,1-.05-.26.12.12,0,0,1,.121-.13.13.13,0,0,1,.131.12,1.026,1.026,0,0,0,.04.21.13.13,0,0,1-.09.16.1.1,0,0,1-.03,0Zm1.225.93a1.388,1.388,0,0,1-1.065-.5.12.12,0,0,1,.02-.17.131.131,0,0,1,.171.01,1.129,1.129,0,1,0-.221-1.02.129.129,0,0,1-.251-.06,1.385,1.385,0,1,1,1.346,1.74Zm-2.139-1.77H10.234a.13.13,0,0,1,0-.25H21.352a.13.13,0,0,1,0,.25Zm7.3,0H25.641a.13.13,0,0,1,0-.25h3.013a.13.13,0,0,1,0,.25ZM9.331,9.5a.141.141,0,0,1-.03,0,.13.13,0,0,1-.09-.15l.4-1.66a.128.128,0,0,1,.251.05l-.4,1.66a.13.13,0,0,1-.121.1Zm19.283,2.67h-1.1c-.331,0-.924-.74-.944-1a.17.17,0,0,1,.151-.2,7.171,7.171,0,0,1,1.577,0,.13.13,0,0,1,.11.14.12.12,0,0,1-.141.1,7.6,7.6,0,0,0-1.426,0c.08.2.5.72.663.72h1.1a.13.13,0,0,1,0,.25ZM26.755,11.21ZM4.193,10.959c-.168,0,.51.025.344,0a.186.186,0,0,1-.117-.175c0-.034-.254.1-.227.081a3.069,3.069,0,0,1,.469.094c.279.061-.2-.094.069-.175.171-.76-.291-.513-.311-.513-.055,0-.115-.01-.133-.062s-.043.034,0,0-.047-.029,0,0c.452.13,1.889-.2,1.719.575-.04.2-1.511.175-1.812.175Zm.227.711c-1.758,0,.352-.22.311-.25s-.878.056-.835,0-.15.091-.094.125c.752.254.141-.022.929-.125a.13.13,0,0,1,0,.25h-.3Z" transform="translate(-0.114)" fill="#053361"/>
    <path id="Trazado_11" data-name="Trazado 11" d="M20.6,9.4l.62.3" fill="#dedfe0"/>
    <path id="Trazado_12" data-name="Trazado 12" d="M21.2,9.95a.25.25,0,0,1-.1-.03l-.62-.3a.253.253,0,0,1,.23-.45l.6.32a.25.25,0,0,1-.11.47Z" fill="#053361"/>
  </g>
</svg>
