<svg xmlns="http://www.w3.org/2000/svg" width="32.187" height="9.865" viewBox="0 0 32.187 9.865">
  <g id="hatchback-car" transform="translate(-4.75 6.254)">
    <path id="Trazado_1" data-name="Trazado 1" d="M26.809,4.2a2.338,2.338,0,0,0,2.517-2.1A2.338,2.338,0,0,0,26.809,0a2.338,2.338,0,0,0-2.517,2.1A2.338,2.338,0,0,0,26.809,4.2ZM5.932,3.105V2.349h.905A1.154,1.154,0,0,1,5.932,3.105ZM6.84,1.856H5.932V1.1A1.153,1.153,0,0,1,6.84,1.856ZM5.341,1.1v.756h-.9A1.161,1.161,0,0,1,5.342,1.1Zm-.9,1.249h.905V3.1A1.15,1.15,0,0,1,4.436,2.347Zm22.67.758V2.349h.905a1.154,1.154,0,0,1-.905.756Zm.905-1.249h-.905V1.1a1.146,1.146,0,0,1,.905.756Zm-1.5-.758v.756H25.61a1.1,1.1,0,0,1,.521-.615,1.254,1.254,0,0,1,.385-.141Zm-.908,1.249h.905V3.1a1.154,1.154,0,0,1-.905-.756ZM12.713,6.611a5.248,5.248,0,0,1-1.189.06c3.108,1.363,4.328,2.248,7.968,2.069l-.5-2.771L13,5.78a.96.96,0,0,1,.1.334c.028.375.023.42-.382.5Zm7.694,2.08-.649-2.685,6.224.211c.64.022.751.256.364.706a6.353,6.353,0,0,1-.6.607c-1.61,1.434-3.211,1.137-5.342,1.161ZM.118,3.491H.309a2.711,2.711,0,0,0,.7,1.191c.758.788,1.1.689,2.231.859l6.309.993A23.266,23.266,0,0,0,14.7,8.73a16.1,16.1,0,0,0,5.306.635q1.786,0,3.562-.181a15.841,15.841,0,0,0,1.8-.2,19.062,19.062,0,0,0,2.074-.476l2.528-1.219a1.59,1.59,0,0,0,1-1.466l.356-2.537h.369v-1.4c-.052-.472-.273-.543-.743-.543h-.611c.237,4.434-7.235,5.192-7.073-.351H8.965C9.927,4.813,5.31,6.139,3.043,3.953A3.232,3.232,0,0,1,2.176,1.3H.523a.79.79,0,0,0-.312.211C-.06,1.824,0,2.752.02,3.288c0,.144-.052.2.1.2Zm5.52.713A2.338,2.338,0,0,0,8.156,2.1,2.338,2.338,0,0,0,5.638,0,2.338,2.338,0,0,0,3.121,2.1,2.338,2.338,0,0,0,5.638,4.2Z" transform="translate(36.693 3.361) rotate(180)" fill="#fcfcfc" stroke="#053361" stroke-width="0.5" fill-rule="evenodd"/>
    <path id="Trazado_12" data-name="Trazado 12" d="M17.389,9.951a.266.266,0,0,1-.126-.023c-.033-.017-.05-.04-.046-.063a16.284,16.284,0,0,0-1.1-4.267c-.016-.045.042-.089.132-.1a.3.3,0,0,1,.129.011.1.1,0,0,1,.069.056A18.144,18.144,0,0,1,17.1,7.524a15.238,15.238,0,0,1,.443,2.341C17.552,9.887,17.434,9.951,17.389,9.951Z" transform="translate(0.852 -5.581) rotate(-7)" fill="#053361"/>
  </g>
</svg>
