<svg xmlns="http://www.w3.org/2000/svg" width="15.748" height="9.622" viewBox="0 0 15.748 9.622">
  <g id="motocross" transform="translate(-0.875 41.15)">
    <path id="Trazado_1" data-name="Trazado 1" d="M9.385-40.679c0,.161.321.321.738.353.546.032.482.1-.321.321a2.763,2.763,0,0,0-1.22.61,9,9,0,0,1-3.242.321c-1.8,0-3.018.128-3.018.321,0,.161.257.321.578.321a5.926,5.926,0,0,1,1.83.642,6.439,6.439,0,0,0,1.669.642c.514,0,.514.161.032.931-.385.61-.385.61-1.156,0a2.525,2.525,0,0,0-3.435.193A2.51,2.51,0,0,0,3.574-31.69c1.316,0,2.023-.546,2.568-2.055.321-.8.482-.867,1.252-.642a7.811,7.811,0,0,0,1.669.257c.674.032.8-.128.9-1.027.064-.546-.032-1.027-.225-1.027a3.514,3.514,0,0,1-.8-.193c-.353-.128-.514-.032-.514.321,0,.578-.257.642-.931.225-.642-.417.161-1.766.867-1.445,1.188.482,1.894.482,2.279,0,.578-.706.835-.642,1.252.257.289.61.257.867-.128,1.156a2.587,2.587,0,0,0-.449,1.605,2.512,2.512,0,0,0,4.334,1.766,2.506,2.506,0,0,0-1.8-4.334,3.391,3.391,0,0,1-1.252-.128A5.018,5.018,0,0,0,12.4-37.6c-.161-.417.032-.514.8-.514.546,0,1-.161,1-.321,0-.193-.546-.321-1.22-.321-1.092,0-1.252-.1-1.637-1.124C11.054-40.743,10.765-41,10.155-41,9.738-41,9.385-40.872,9.385-40.679ZM4.73-35.735c.61.417.578.482-.482.738-.642.161-1.124.514-1.124.77,0,.449.417.482,1.7.1.417-.128.706-.064.706.161,0,.578-1.252,1.637-1.926,1.637A2.317,2.317,0,0,1,1.68-34.258a2.36,2.36,0,0,1,1.862-1.926A2.277,2.277,0,0,1,4.73-35.735Zm10.434.193a2.221,2.221,0,0,1,.642,1.284,2.317,2.317,0,0,1-1.926,1.926,1.989,1.989,0,0,1-1.669-2.793c.193-.289.417-.128.835.546.578,1.027.963,1.188,1.348.578.128-.225-.064-.578-.449-.835a1.549,1.549,0,0,1-.706-.9C13.237-36.409,14.425-36.281,15.163-35.542Z" transform="translate(0)" fill="none" stroke="#053361" stroke-width="0.3"/>
  </g>
</svg>
