<svg xmlns="http://www.w3.org/2000/svg" width="17.12" height="9.598" viewBox="0 0 17.12 9.598">
  <g id="_1320837" data-name="1320837" transform="translate(0.01 708.977)">
    <path id="Trazado_1" data-name="Trazado 1" d="M12.49-708.575a2.195,2.195,0,0,1-.2.12c-.123.062-.154.089-.128.121a1.182,1.182,0,0,0,.25.164.236.236,0,0,1,.078.05.419.419,0,0,1-.079.072c-.12.092-.131.145-.058.233.026.032.041.059.033.062s-.015.02-.015.038a.127.127,0,0,1-.026.066.121.121,0,0,0-.026.052.235.235,0,0,1-.05.074c-.027.03-.079.095-.114.142a.514.514,0,0,1-.084.095.124.124,0,0,1-.071-.033c-.113-.083-.214-.037-.256.118l-.022.086h-.1l-.072-.138c-.072-.137-.072-.138-.13-.148a.226.226,0,0,0-.108,0,.259.259,0,0,1-.2-.013c-.08-.037-.118-.051-.118-.045a.508.508,0,0,0,.076.039.584.584,0,0,1,.23.151c.012.02.018.039.013.045s-.042.008-.05-.018a.6.6,0,0,0-.236-.168,5.292,5.292,0,0,0-1.071-.31,2.251,2.251,0,0,0-.884,0,3.739,3.739,0,0,0-1.034.4,1.425,1.425,0,0,0-.6.485,1.836,1.836,0,0,0-.162.309c0,.03-.032.024-.1-.02-.129-.079-.3-.1-.878-.118a5.334,5.334,0,0,1-.854-.059A2.18,2.18,0,0,1,4.9-707c-.142-.1-.146-.1-.16-.171a1.208,1.208,0,0,0-.212-.394c-.153-.214-.168-.229-.323-.289a2.174,2.174,0,0,0-.887-.133c-.323-.015-1.146-.013-1.162,0s.018.052.2.182a1.17,1.17,0,0,1,.209.172,2.752,2.752,0,0,0,.425.359c.214.159.219.163.268.239s.095.108.162.086c.05-.017.055-.016.155.039a1.325,1.325,0,0,1,.294.242,1.246,1.246,0,0,0,.443.331,10.334,10.334,0,0,1,.907.507.146.146,0,0,0,.1.05,1.684,1.684,0,0,1,.45.224l.039.039H5.768a.086.086,0,0,1-.058-.02c-.012-.015-.045-.02-.128-.02H5.472l-.066.062a1.19,1.19,0,0,0-.209.272c-.01.029-.007.064.02.171a4.675,4.675,0,0,1,.095.74,1.515,1.515,0,0,1-.392-.267,1.84,1.84,0,0,0-.539-.378,2.759,2.759,0,0,0-.512-.2c-.009,0,.039.052.108.112a4.677,4.677,0,0,1,.588.623,1.645,1.645,0,0,1,.16.224s-.042-.037-.089-.081a2.647,2.647,0,0,0-1.386-.7,2.5,2.5,0,0,0-1.15.064,2.6,2.6,0,0,0-1.1.634,2.757,2.757,0,0,0-.778,1.313A2.351,2.351,0,0,0,.166-702,2.611,2.611,0,0,0,.9-700.468a2.993,2.993,0,0,0,.721.464,1.581,1.581,0,0,0,.439.158c.111.024.267.054.346.067a3.429,3.429,0,0,0,.709.008,2.692,2.692,0,0,0,.82-.26,3.184,3.184,0,0,0,.785-.62,2.359,2.359,0,0,0,.554-.941c.038-.121.057-.142.129-.16l.039-.009-.042.045a.3.3,0,0,0-.067.3c.03.1.109.162.464.357l.331.182.171.01c.095.007.481.017.861.026s.746.02.815.026c.205.02.5.035.749.041a1.032,1.032,0,0,0,.309-.018,1.96,1.96,0,0,1,.362-.037,5.282,5.282,0,0,1,.822-.013c.184.02.386.037.545.047.106.008.128.005.142-.013s.047-.021.224-.021.514.022.728.047c.076.009.122,0,.133-.029,0-.012.022-.2.041-.425s.042-.5.052-.607c.047-.477.051-.529.029-.546s-.018-.016,0-.029.026-.047.039-.176a1.2,1.2,0,0,1,.439-.987.571.571,0,0,1,.1-.076c.027,0,.01.042-.058.137a2.2,2.2,0,0,0-.322.731,2.558,2.558,0,0,0,.2,1.731,2.547,2.547,0,0,0,.554.768,2.246,2.246,0,0,0,.494.365,2.833,2.833,0,0,0,.781.309,1.862,1.862,0,0,0,.907.047,1.985,1.985,0,0,0,1.04-.593,2.074,2.074,0,0,0,.527-.785,2.4,2.4,0,0,0,0-1.607,2.6,2.6,0,0,0-.393-.756,3.544,3.544,0,0,0-.478-.5l-.117-.091c-.013-.012-.017-.029-.01-.058s0-.047-.033-.079a2.283,2.283,0,0,0-.95-.418c-.122-.024-.506-.067-.6-.067-.021,0-.029-.007-.026-.02a5.3,5.3,0,0,1,.709-.34c.2-.081.226-.1.26-.171a.606.606,0,0,1,.078-.117c.133-.148.189-.222.189-.26s-.007-.038-.02-.038a.019.019,0,0,1-.014-.005.019.019,0,0,1-.006-.013c0-.018.012-.021.134-.045.079-.015.12-.05.112-.095a2.944,2.944,0,0,0-.189-.467,7.079,7.079,0,0,0-.72-1.04c-.039-.043-.15-.173-.246-.288a13.915,13.915,0,0,0-1.425-1.393A1.407,1.407,0,0,0,12.49-708.575Zm-.548,1.312c.052.018.051.033-.007.058-.037.015-.052.016-.066.005a.037.037,0,0,1-.018-.03.037.037,0,0,1,.015-.032c.018-.019.02-.019.072,0Zm1.487.163a.416.416,0,0,0,.117.033c.03,0,.062.018.122.074.1.088.108.1.089.138a.275.275,0,0,0-.01.106l0,.079-.1.039a.32.32,0,0,1-.284,0c-.054-.021-.062-.029-.069-.074a.689.689,0,0,1,.005-.151.324.324,0,0,0-.007-.17c-.033-.113,0-.13.135-.072Zm-.263.139c.015.034.015.044-.005.062s-.024.021-.042,0a.062.062,0,0,1,0-.084c.022-.024.029-.02.047.025ZM7.317-704.1a.054.054,0,0,1-.02.027.08.08,0,0,0-.02.052.079.079,0,0,1-.017.051c-.025.02-.1.034-.1.018a.434.434,0,0,1,.067-.086c.061-.071.088-.091.088-.063Zm-4.648.162c.021.016.02.03-.01.208a2.357,2.357,0,0,0-.033.243.137.137,0,0,1-.069.135c-.055.026-.089,0-.217-.151-.182-.222-.182-.219-.163-.264a.243.243,0,0,1,.047-.067.751.751,0,0,1,.271-.1c.109-.022.146-.024.172,0Zm.512.024c.163.051.15.112-.067.311s-.234.214-.29.214a.11.11,0,0,1-.066-.017.777.777,0,0,1,0-.246l.01-.226.043-.039c.045-.039.047-.041.164-.033a.944.944,0,0,1,.207.035Zm3.348.062c.009.009-.076.083-.095.083s-.091-.066-.083-.088.022-.018.091-.01a.332.332,0,0,1,.084.015Zm-.3.024a.041.041,0,0,0,.007.038c.029.034,0,.034-.041,0s-.047-.057,0-.057c.026,0,.034,0,.029.018Zm-4.191.064a4.731,4.731,0,0,1,.327.444c0,.013-.024.038-.089.079a1.029,1.029,0,0,0-.5.865l-.005.125-.05,0a3.081,3.081,0,0,1-.54-.086c-.018-.018-.02-.038-.007-.168A1.565,1.565,0,0,1,1.86-703.7a.5.5,0,0,1,.146-.079.094.094,0,0,1,.035.017Zm12.673.256c.015.009.009.013-.022.013s-.043-.007-.043-.013S14.687-703.523,14.714-703.507Zm.039.138c.021.025,0,.052-.021.032s-.025-.051-.007-.051a.054.054,0,0,1,.027.021Zm.092.052c.021.025,0,.052-.021.032s-.025-.051-.007-.051a.054.054,0,0,1,.027.021Zm.392.027c.037.024.037.045,0,.045s-.089-.047-.089-.069.047,0,.089.025Zm-12.885.083c.012.018-.005.054-.025.054a.031.031,0,0,1-.028-.016.031.031,0,0,1,0-.032.031.031,0,0,1,.025-.017.031.031,0,0,1,.027.012Zm12.585.009a.254.254,0,0,1,0,.106c-.013.08-.02.095-.039.095s-.038-.027-.069-.095c-.063-.13-.062-.133.026-.126a.244.244,0,0,1,.085.021Zm-1.413.177a.314.314,0,0,1,.033.081.233.233,0,0,1-.067.075c-.059.05-.069.054-.1.041s-.032-.02-.024-.059a.116.116,0,0,0-.016-.086c-.022-.038-.022-.039.01-.083s.041-.045.081-.039.054.015.08.072Zm-11.287-.039a.03.03,0,0,1,.006.034.03.03,0,0,1-.03.017.023.023,0,0,1-.018-.006.023.023,0,0,1-.007-.018c0-.039.022-.052.047-.026Zm.189.037c0,.016-.026.033-.035.024s.008-.035.024-.035a.011.011,0,0,1,.008,0,.012.012,0,0,1,0,.009ZM15.51-703c0,.024-.026.02-.03-.005s0-.02.013-.016a.027.027,0,0,1,.016.023Zm-13.424.035c.017.021.008.047-.02.047a.031.031,0,0,1-.028-.016.031.031,0,0,1,0-.032c.007-.023.024-.023.047,0Zm13.433.095a.466.466,0,0,1,.084.1c0,.008-.041.026-.095.038-.083.021-.095.021-.114,0a.208.208,0,0,1-.03-.184c.023-.063.056-.054.151.043ZM2.2-702.854c0,.01-.012.018-.026.018a.025.025,0,0,1-.026-.015.025.025,0,0,1,.007-.029C2.171-702.891,2.2-702.874,2.2-702.854Zm13.086-.018c.041.018.058.037.047.052s-.047.01-.087-.029-.028-.052.041-.024Zm-12.968.037a.123.123,0,0,1-.033.045.108.108,0,0,0-.033.059.071.071,0,0,1-.033.047.067.067,0,0,0-.033.051.182.182,0,0,1-.02.067.226.226,0,0,0-.02.084.114.114,0,0,1-.012.059.109.109,0,0,0-.017.047.04.04,0,0,1-.029.037c-.024.005-.025,0-.017-.1a.441.441,0,0,1,.052-.2c.055-.111.133-.205.168-.205.015,0,.027.005.027.013Zm-.254.074c.009.024-.022.05-.041.032a.033.033,0,0,1-.005-.031.033.033,0,0,1,.024-.021c.009,0,.016.009.023.021Zm13.609.095a1.585,1.585,0,0,1,.147.3.3.3,0,0,1,.018.1c0,.032-.01.037-.052.041s-.047,0-.12-.106c-.039-.061-.1-.148-.133-.194a.3.3,0,0,1-.058-.1c0-.01.037-.029.076-.042.095-.029.1-.03.122,0Zm-1.64.01c0,.01,0,.02-.005.02s-.013-.009-.013-.02,0-.02.005-.02.009.008.014.018Zm-12.127.038c-.012.03-.047.026-.047,0s.026-.044.047-.026a.03.03,0,0,1,0,.029Zm13.9,0c0,.015-.005.022-.013.018a.037.037,0,0,1-.013-.027c0-.01.007-.018.013-.018s.013.01.013.026Zm-13.763.029c0,.016,0,.022-.022.022s-.027-.008-.027-.027c0-.034.043-.03.05,0Zm12.067.079c0,.026-.033,0-.037-.032s0-.03.017-.007a.1.1,0,0,1,.02.037Zm1.431.113c.1.15.113.185.061.185s-.1-.034-.142-.114a.443.443,0,0,1-.057-.221c.012-.034.022-.023.138.148Zm-.268-.1c0,.029-.038.024-.043,0s0-.024.02-.02a.028.028,0,0,1,.024.022Zm-13.3.063c0,.022,0,.029-.022.029s-.027-.008-.027-.024c0-.047.043-.055.05-.006Zm13.32.034a.027.027,0,0,1,0,.025c-.012.013-.043-.007-.043-.025s.034-.025.042,0Zm.632.061c-.018.018-.051-.018-.038-.041s.016-.008.03.007.017.024.008.033Zm-.619.033a.02.02,0,0,1,0,.015.02.02,0,0,1-.008.013.02.02,0,0,1-.015,0,.02.02,0,0,1-.013-.008.025.025,0,0,1-.005-.026.025.025,0,0,1,.021-.016c.006,0,.014.009.017.019ZM2.018-702.3a.033.033,0,0,1-.02.026c-.02.007-.027-.018-.01-.035s.03-.011.03.008Zm-.112.029a.031.031,0,0,1-.022.029c-.024,0-.034-.036-.015-.055s.037,0,.037.026Zm13.53.005c0,.007-.009.013-.02.013s-.02-.007-.02-.013.009-.013.02-.013.02,0,.02.013Zm-14.012.047a1.172,1.172,0,0,1,.351.1c.05.039.047.095-.016.142a2.42,2.42,0,0,1-.419.29c-.027,0-.039-.013-.066-.071a1.559,1.559,0,0,1-.1-.369.142.142,0,0,1,.027-.078c.032-.044.062-.044.22-.017Zm14.57.059c-.018.018-.05-.007-.039-.034s.01-.021.03,0,.019.023.009.032Zm-.709.047c.042.095.041.114,0,.109s-.037-.009-.047-.083c-.01-.127,0-.133.051-.03Zm.156-.047a.047.047,0,0,1,0,.035c-.007.016-.012.017-.027,0a.058.058,0,0,1-.02-.034.027.027,0,0,1,.021-.018.027.027,0,0,1,.026.011Zm-11.483.022c0,.016-.027.027-.089.039-.095.018-.118.016-.118-.015s.075-.044.155-.047c.047,0,.058,0,.054.021Zm1.69.026c-.012.027-.029.074-.039.1-.041.114-.047.122-.15.138a.465.465,0,0,0-.081.02c-.02.008-.024,0-.022-.041a1.236,1.236,0,0,1,.016-.142l.016-.094.092-.015a1.334,1.334,0,0,1,.142-.017h.047Zm10.243.02c0,.017,0,.024-.027.024s-.055-.027-.038-.045a.047.047,0,0,1,.038-.005.047.047,0,0,1,.029.025Zm-.473.043c0,.01-.012.02-.026.02s-.034-.015-.017-.03.047-.011.047.008Zm-4.9.052c0,.037-.114.133-.216.182s-.129.058-.153.029-.025-.018.074-.071a.94.94,0,0,0,.145-.1.171.171,0,0,1,.108-.059c.033,0,.047,0,.047.017Zm5.507.007c0,.015-.009.026-.02.026s-.02-.012-.02-.026.009-.026.02-.026a.025.025,0,0,1,.024.024Zm-.49.021-.034.026c-.019-.024-.009-.047.013-.047s.018.007.025.019Zm.317-.005-.009.094-.017.182-.065.154a.745.745,0,0,1-.168.224.275.275,0,0,1,.009-.1,1.774,1.774,0,0,0,.018-.239.517.517,0,0,1,.033-.222.977.977,0,0,1,.038-.095l.05-.011.114.011Zm-.251.026c0,.01-.008.007-.008-.008s0-.022.007-.017a.027.027,0,0,1,.005.023Zm-13.148,0a.02.02,0,0,1-.02.02.02.02,0,0,1-.02-.02.02.02,0,0,1,.02-.02.02.02,0,0,1,.015.007.02.02,0,0,1,.005.015Zm1.73,0a.579.579,0,0,1-.1.224.133.133,0,0,1-.146.01c-.025-.013-.047-.03-.047-.039a1.665,1.665,0,0,1,.273-.213.029.029,0,0,1,.019.02Zm-1.664.025c0,.026-.025.041-.042.024a.025.025,0,0,1-.005-.027c.015-.021.047-.017.047,0Zm12.838,0c0,.01-.033.018-.071.02l-.064,0,.039-.018c.05-.022.1-.024.1,0Zm.618.015c0,.013,0,.022-.015.022s-.039-.032-.025-.045.035,0,.04.025Zm-13.4.026c-.009.026-.045.03-.045.005s.029-.051.042-.038a.032.032,0,0,1,0,.033Zm-.67.012a.115.115,0,0,1,.021.057c0,.015-.027.145-.062.288-.051.216-.069.268-.1.3a.124.124,0,0,1-.063.037.826.826,0,0,1-.29-.336.218.218,0,0,1,.095-.155,3.161,3.161,0,0,1,.36-.217.057.057,0,0,1,.036.028Zm13.581.015c0,.013,0,.022-.016.022s-.021,0-.021-.005a.2.2,0,0,0-.008-.027c-.007-.017,0-.021.016-.017a.039.039,0,0,1,.029.027Zm-13.363.035c0,.015-.009.026-.02.026s-.018-.005-.007-.026a.072.072,0,0,1,.02-.026S2.123-701.838,2.123-701.825Zm13.9.024c0,.016,0,.029-.009.029s-.042-.047-.032-.058.036,0,.041.031Zm-.641-.005a.2.2,0,0,0,.008.027c.008.017,0,.021-.029.017-.05-.005-.062-.05-.013-.05.018,0,.034,0,.034.008Zm.164.02a.016.016,0,0,1-.007.021c-.007,0-.013,0-.013-.012s.008-.026.02-.008Zm-5.495.022c.016.042.007.058-.054.089a1.02,1.02,0,0,1-.431.079c-.147,0-.158,0-.158-.024s.042-.045.225-.06a.891.891,0,0,0,.269-.058c.149-.052.138-.051.149-.025Zm5.909.035c0,.013,0,.022-.015.022s-.039-.032-.025-.045.034,0,.037.025Zm-13.751.057a.031.031,0,0,1-.024.029.028.028,0,0,1-.03-.017.028.028,0,0,1,.009-.034c.024-.014.042-.005.042.024Zm1.668,0c.047.027.047.047,0,.052a.743.743,0,0,0-.095.018c-.051.013-.059.012-.075-.009-.029-.038-.022-.059.025-.079a.147.147,0,0,1,.142.018Zm11.628-.017c0,.01-.005.02-.013.02s-.013-.009-.013-.02.007-.02.013-.02.009.011.009.023Zm-2.26.007c0,.007,0,.013-.005.013a.034.034,0,0,1-.015-.013.008.008,0,0,1,0-.008.008.008,0,0,1,.007-.005.014.014,0,0,1,.01.015Zm1.866.039c0,.032-.033.035-.045.005s-.009-.059.018-.045a.053.053,0,0,1,.022.041Zm-12.985.026a1.02,1.02,0,0,0,.552.222,2.351,2.351,0,0,1,.447.108c.172.059.217.047.208-.05,0-.037,0-.05.017-.054s.117.185.117.264-.026.1-.162.163a1.621,1.621,0,0,1-.618.135c-.4,0-.811-.163-.811-.323a1.866,1.866,0,0,1,.142-.5c.013-.039.017-.039.1.032Zm13.123,0c.041.086.041.1,0,.1s-.088-.036-.088-.062.03-.109.042-.109a.18.18,0,0,1,.04.069Zm.118.016c0,.062-.012.06-.038-.005s-.027-.086.008-.063a.069.069,0,0,1,.026.069Zm-6.034-.063a.037.037,0,0,1,.021.033c0,.02-.009.025-.045.025s-.067-.016-.055-.047.039-.023.075-.01Zm4.431.054c.041.069.147.227.192.284.024.029.026.038.012.052s-.025.007-.057-.03a1.884,1.884,0,0,1-.229-.35c.009-.035.042-.016.078.047Zm-.25.01a.3.3,0,0,1-.062.047c-.005,0-.013-.016-.017-.035-.012-.044.007-.057.078-.055h.052Zm2.5.012c-.02.02-.047-.012-.034-.041s.01-.022.029,0,.01.034,0,.042Zm-2.657-.021c0,.009,0,.016-.016.016a.021.021,0,0,1-.021-.021c0-.021.024-.017.031.006Zm2.111,0c.012.03.01.032-.018.032a.024.024,0,0,1-.026-.015.024.024,0,0,1,.009-.028q.017-.02.031.013Zm-1.519.036c0,.013,0,.022-.015.022s-.039-.032-.025-.045.031,0,.035.024Zm-.271.045.107.151.031.043a1,1,0,0,1,.1.16.236.236,0,0,1-.074.142.961.961,0,0,1-.241-.229l-.081-.123-.05-.076.064-.066a.27.27,0,0,1,.08-.064.3.3,0,0,1,.055.064Zm2.255-.01c0,.021,0,.029-.013.025a.047.047,0,0,1-.021-.035c0-.021,0-.029.013-.025a.047.047,0,0,1,.017.036Zm.129.1a1.07,1.07,0,0,1-.106.314c-.02.008-.112-.032-.112-.047a.545.545,0,0,1,.069-.1,1.294,1.294,0,0,0,.113-.185.33.33,0,0,1,.051-.089.406.406,0,0,1-.018.11ZM2.515-701.5a.031.031,0,0,1-.022.029c-.024,0-.034-.036-.015-.055s.033,0,.033.027Zm10.82-.018c.024.024.02.037-.01.037a.024.024,0,0,1-.02-.007.024.024,0,0,1-.007-.02c0-.029.011-.033.033-.009Zm2.519.027c0,.034-.026.033-.03,0,0-.021,0-.029.013-.025a.032.032,0,0,1,.013.029Zm-11.9,0a.905.905,0,0,1-.182.214c-.074.069-.087.076-.142.076-.083,0-.131-.047-.158-.151a.2.2,0,0,1-.009-.088,1.33,1.33,0,0,1,.221-.035C3.933-701.51,3.95-701.512,3.95-701.494Zm10.326.029c.033.021.041.033.032.042s-.106-.025-.106-.052.022-.023.075.008Zm1.245,0a.013.013,0,0,1-.009.007.013.013,0,0,1-.011,0,.013.013,0,0,1-.007-.009.013.013,0,0,1,0-.011.013.013,0,0,1,.009-.007.013.013,0,0,1,.011,0,.013.013,0,0,1,0,.018Zm-1.549.012c0,.029-.038.024-.043,0s.041-.01.043,0Zm.727.024c0,.017.01.025.022.021a.022.022,0,0,1,.026.007.017.017,0,0,1,0,.014.017.017,0,0,1-.011.008c-.022.009-.072-.041-.074-.071s.033-.011.037.019Zm-.05.024c0,.01-.005.016-.013.012a.028.028,0,0,1-.013-.021.013.013,0,0,1,.013-.012c.008,0,.013.007.013.019Zm-1.172.063c0,.017,0,.022-.018.018a.036.036,0,0,1-.029-.029c0-.017,0-.022.018-.018a.037.037,0,0,1,.029.027Zm2.434.009c0,.016-.035.015-.047,0a.019.019,0,0,1,0-.026.018.018,0,0,1,.026,0,.044.044,0,0,1,.019.024Zm-1.774.012c0,.015-.009.026-.02.026s-.02-.012-.02-.026.009-.026.02-.026a.023.023,0,0,1,.02.025Zm.092,0a.013.013,0,0,1-.013.013.014.014,0,0,1-.013-.013.013.013,0,0,1,0-.009.014.014,0,0,1,.009,0,.012.012,0,0,1,.009,0,.012.012,0,0,1,0,.009Zm1.581.02a.02.02,0,0,1,0,.026.02.02,0,0,1-.026,0c-.02-.012-.016-.047.005-.047a.03.03,0,0,1,.025.018Zm-1.358.016c0,.034-.021.062-.038.051a.052.052,0,0,1-.005-.064c.017-.018.043-.01.043.012Zm.322.043c0,.08-.029.083-.083.008a.306.306,0,0,1-.042-.067.127.127,0,0,1,.063,0l.062,0Zm.932-.013c-.018.018-.051-.018-.038-.041s.016-.008.03.007.017.024.008.033Zm-2.217.008c.01.027-.017.055-.037.035s-.007-.057.015-.057a.03.03,0,0,1,.023.02Zm1.134.041.045.06-.045-.008c-.059-.012-.079-.032-.079-.076s.029-.047.079.021Zm.644-.021c0,.022-.026.064-.039.064s-.018-.057,0-.069.043-.012.043,0Zm-.421.1a.013.013,0,0,1-.013.013.014.014,0,0,1-.013-.013.013.013,0,0,1,.013-.013.013.013,0,0,1,.009,0,.012.012,0,0,1,0,.008Zm-.648.033.037.032H14.2a.056.056,0,0,1-.05-.025c-.027-.053,0-.056.047-.009Zm1.639.047c.066.052.035.125-.121.291-.134.142-.151.151-.193.123a.545.545,0,0,1-.133-.226.148.148,0,0,1,.063-.043,1.447,1.447,0,0,0,.168-.1c.123-.082.163-.09.216-.047ZM9.265-701c.062.054.063.058.032.059s-.13-.074-.13-.1.034-.018.1.042Zm6.3-.024c-.005.029-.029.026-.034,0a.016.016,0,0,1,0-.015.016.016,0,0,1,.015-.006.017.017,0,0,1,.014,0,.017.017,0,0,1,0,.014Zm-1.9.01c.012.015.013.025,0,.035s-.042,0-.042-.03.018-.035.041-.007Zm.116.038c0,.017,0,.022-.018.018a.036.036,0,0,1-.029-.029c0-.017,0-.022.018-.018a.036.036,0,0,1,.03.026Zm.765-.018c0,.007-.009.013-.02.013s-.02-.007-.02-.013.009-.013.02-.013.021,0,.021.011Zm.184.027c0,.026-.02.034-.033.012s0-.057.02-.047a.047.047,0,0,1,.015.034Zm-.752.009a.031.031,0,0,1-.017.037c-.03.012-.05-.013-.039-.047s.053-.031.057.009Zm.467.009a2.653,2.653,0,0,0,.338.121c.047.013-.062.047-.171.054a1.176,1.176,0,0,1-.425-.055c-.123-.043-.137-.057-.114-.118l.017-.047h.128a.393.393,0,0,1,.231.044Zm.378.054c0,.01-.005.018-.013.018s-.013-.012-.013-.027.007-.022.013-.018a.033.033,0,0,1,.013.026Zm-1,.014a.019.019,0,0,1-.006.013.02.02,0,0,1-.014.005c-.02,0-.027-.027-.012-.043s.032,0,.032.024ZM14-700.8a.026.026,0,0,1-.016.022c-.01,0-.017-.005-.017-.022s.007-.026.017-.024A.03.03,0,0,1,14-700.8Zm-.114.01c0,.009,0,.016-.016.016a.021.021,0,0,1-.021-.021c0-.024.03-.02.037,0Zm1.447.075c.066.1.083.142.071.172a.729.729,0,0,1-.4.128c-.069,0-.084,0-.1-.029a.109.109,0,0,1-.025-.059c0-.033.034-.086.055-.086a.932.932,0,0,0,.263-.145,1.052,1.052,0,0,1,.084-.066.942.942,0,0,1,.057.084Zm-1.158-.027c0,.016,0,.022-.013.018a.041.041,0,0,1-.021-.029c0-.016,0-.022.013-.018a.04.04,0,0,1,.021.027Zm.791.009c0,.032-.03.027-.037-.005,0-.013,0-.022.016-.022a.024.024,0,0,1,.017.008.024.024,0,0,1,.006.018Zm.1.013c0,.032-.03.027-.037-.005,0-.013,0-.022.016-.022a.024.024,0,0,1,.017.008.024.024,0,0,1,.006.018Zm-.359.007a.056.056,0,0,1-.009.032c-.016.026-.047,0-.034-.033a.022.022,0,0,1,.022-.019.022.022,0,0,1,.022.019Zm-.261.022c0,.016,0,.022-.022.022s-.027-.008-.027-.027.047-.03.05,0Zm.344.029c0,.024-.005.03-.02.025a.029.029,0,0,1-.017-.021.029.029,0,0,1,.007-.026c.018-.021.031-.01.031.021Zm-.264.01c.016.02.007.035-.021.035-.009,0-.017-.012-.017-.026,0-.031.017-.035.039-.01Zm-.173.043a.056.056,0,0,1-.009.032c-.016.026-.047,0-.034-.033a.022.022,0,0,1,.022-.019.022.022,0,0,1,.022.019Zm.293.012a.026.026,0,0,1-.013.026.026.026,0,0,1-.029,0c-.02-.02,0-.057.022-.047a.031.031,0,0,1,.021.022Zm-.189.072a.841.841,0,0,0,.216,0,.3.3,0,0,1,.095-.007c.016.009.015.067,0,.1s-.022.026-.108.017a1.276,1.276,0,0,1-.4-.1.315.315,0,0,1-.084-.05.2.2,0,0,1,.076.009,1.968,1.968,0,0,0,.208.032Z" transform="translate(0 0)" fill="none" stroke="#053361" stroke-width="0.3"/>
  </g>
</svg>
