<svg xmlns="http://www.w3.org/2000/svg" width="14.166" height="8.703" viewBox="0 0 14.166 8.703">
  <g id="icons8-moto-64-_1_" transform="translate(0.071 55.156)">
    <path id="Trazado_1" data-name="Trazado 1" d="M9.855-50.837c-1.1-.067-1.3-.022-1.865.562a3.786,3.786,0,0,0-.741.9c-.157.472-2.247.354-2.988-.455a5.645,5.645,0,0,0-1.505-.2l-.237-.045-.953-.359c-.607.382-.7-.067.067.4.629.382.652.427.225.674a1.451,1.451,0,0,0-.292,1.708c.2.517,2.7.494,3.28-.022.472-.427.831-.225.427.247a1.072,1.072,0,0,0-.112.9c.18.719,0,.741-.854.022a1.793,1.793,0,0,0-2.674.09c-.876.9-.652,1.655.225,2.554l.9.254h.723l.782-.254c.359-.359.764-.666.764-.891,0-.315.27-.494.966-.7.831-.225,1.011-.2,1.573.2a2.478,2.478,0,0,0,1.8.382c1.078-.067,1.168-.112,1.236-.7.045-.337.157-.607.27-.607.09,0,.135.4.067.9-.112.764.169.8.775,1.408a2.951,2.951,0,0,0,2.55-.275c.876-.9.876-1.38,0-2.279a2.2,2.2,0,0,0-1.123-.652c-.315,0-.472-.135-.472-.449,0-.539.2-.562,1.281-.112.449.18.876.292.944.225.225-.247-.337-.9-1.123-1.281-.427-.225-.607-.4-.4-.4.4,0,.652-.449.652-1.146,0-.315-.157-.427-.629-.427a1.015,1.015,0,0,0-.719.225c-.259.259-.269.035-.539-.4a3.875,3.875,0,0,1-.292-.621c-.135-.607-.652-.548-1.056-.548l.228.171.7.835C11.925-50.387,11.455-49.651,9.855-50.837ZM13.6-49.831c0,.449-.193.422-.261.31-.247-.4-.494-.754,0-.754C13.63-50.275,13.6-50.123,13.6-49.831ZM7.227-48.77c.18.18-.314,1.021-.764.931l-.629-.571c-.067-.337,0-.4.629-.225C6.845-48.523,7.159-48.815,7.227-48.77Z" transform="translate(-1 -3)" fill="none" stroke="#053361" stroke-width="0.3"/>
  </g>
</svg>
